<svg xmlns="http://www.w3.org/2000/svg" version="1.1" viewBox="0 0 989 2048">
<path transform="translate(0)" d="m0 0h989v2048h-989z" fill="#E0E0FD"/>
<path transform="translate(908,1526)" d="m0 0h20l19 4 21 7 21 9v502h-643l2-9 5-14 8-16 10-16 10-13 12-14 9-10 14-12 15-13 17-13 19-14 23-16 16-10 19-12 52-30 24-14 13-8 19-12 19-14 4-1-1 5-8 13-4 9v6l8 5 4-1 6-9 12-24 11-25 4-13 8-11 9-11 11-13 9-11 4-4 5 1 13 10 10 5 4-2 2-4v-6l-7-8-15-11 2-6 13-19 13-18 9-12 14-19 11-13 7-9 12-14 18-18 14-11 14-9 17-8 17-5z" fill="#B089FE"/>
<path transform="translate(0,1487)" d="m0 0 34 3 25 5 24 8 18 8 23 12 18 12 13 10 10 9 8 7 13 14 15 20 9 15 11 21 10 26 6 22 5 31 1 10v28l-4 27-7 26-7 20-12 26-9 15-10 14-9 11-11 12-10 10-11 9-15 11-18 11-19 10-23 9-26 7-28 5-16 2h-8z" fill="#B089FE"/>
<path transform="translate(707,1668)" d="m0 0h7l17 12 10 7 16 12 7 8v6l-4 6-3 1-10-5-13-10-5-5-10-9-14-12-2-3v-5z" fill="#EDF4FE"/>
<path transform="translate(681,1756)" d="m0 0h5v7l-7 17-17 35-6 9-2 2-5-1-7-5v-6l7-14 8-13 9-16 7-9 6-5z" fill="#EDF4FE"/>
<path transform="translate(638,1645)" d="m0 0 4 1 1 5-6 8-6 7-8 7-23 23-4 3h-5l-3-5 2-7 15-16 9-9 8-7 11-8z" fill="#EEF5FF"/>
<path transform="translate(988,2026)" d="m0 0h1v22h-24l2-4 11-9 8-8z" fill="#EDF4FE"/>
<path transform="translate(966)" d="m0 0h23v18h-5l-14-12-4-4z" fill="#EEF5FF"/>
<path transform="translate(0,2028)" d="m0 0 7 4 10 8 5 6v2h-22z" fill="#EEF5FF"/>
<path transform="translate(0)" d="m0 0h21l-1 4-11 11-7 5h-2z" fill="#EEF5FF"/>
</svg>