<?xml version="1.0" encoding="UTF-8"?>
<svg width="175px" height="175px" viewBox="0 0 175 175" version="1.1" xmlns="http://www.w3.org/2000/svg" xmlns:xlink="http://www.w3.org/1999/xlink">
    <!-- Generator: Sketch 64 (93537) - https://sketch.com -->
    <title>Artboard</title>
    <desc>Created with Sketch.</desc>
    <defs>
        <rect id="path-1" x="0" y="0" width="175" height="175" rx="1"></rect>
        <rect id="path-3" x="0" y="0" width="175" height="175" rx="1"></rect>
        <linearGradient x1="5.709%" y1="-3.40517219%" x2="98.47%" y2="108.30078%" id="linearGradient-5">
            <stop stop-color="#F0F0F0" offset="0%"></stop>
            <stop stop-color="#F2EDFD" offset="100%"></stop>
        </linearGradient>
        <path d="M122.251897,102.529989 C101.225956,96.4757924 72.8052845,99.5906912 62.182262,102.529989 C46.2477287,106.938934 33.4273481,101.862191 20.6363753,84.3682553 C7.84540254,66.8743199 -9.35170325,55.3985211 6.3226747,23.5038956 C21.9970527,-8.39072988 69.6728825,4.76088272 98.6936328,1.6875465 C127.714382,-1.38578971 162.65878,2.44434189 154.362602,30.5116838 C146.066425,58.5790256 160.410542,65.8369465 153.997117,86.1319713 C149.7215,99.6619875 139.13976,105.127994 122.251897,102.529989 Z" id="path-6"></path>
        <path d="M122.251897,102.529989 C101.225956,96.4757924 72.8052845,99.5906912 62.182262,102.529989 C46.2477287,106.938934 33.4273481,101.862191 20.6363753,84.3682553 C7.84540254,66.8743199 -9.35170325,55.3985211 6.3226747,23.5038956 C21.9970527,-8.39072988 69.6728825,4.76088272 98.6936328,1.6875465 C127.714382,-1.38578971 162.65878,2.44434189 154.362602,30.5116838 C146.066425,58.5790256 160.410542,65.8369465 153.997117,86.1319713 C149.7215,99.6619875 139.13976,105.127994 122.251897,102.529989 Z" id="path-8"></path>
        <linearGradient x1="102.214941%" y1="26.8664629%" x2="0%" y2="93.7123794%" id="linearGradient-10">
            <stop stop-color="#FDB6CB" offset="0%"></stop>
            <stop stop-color="#FD7082" offset="100%"></stop>
        </linearGradient>
        <path d="M0.562102984,2.6821582 C0.562102984,1.41737209 1.74552192,0.392060363 3.21870634,0.392060363 L101.689086,0.392060363 C103.156288,0.392060363 104.34569,1.41324409 104.34569,2.6821582 L104.34569,94.1019623 C104.34569,95.3667482 103.162271,96.3920604 101.689086,96.3920604 L3.21870634,96.3920604 C1.75150485,96.3920604 0.562102984,95.3708762 0.562102984,94.1019623 L0.562102984,2.6821582 Z" id="path-11"></path>
        <filter x="-16.9%" y="-16.1%" width="133.7%" height="136.5%" filterUnits="objectBoundingBox" id="filter-12">
            <feOffset dx="0" dy="2" in="SourceAlpha" result="shadowOffsetOuter1"></feOffset>
            <feGaussianBlur stdDeviation="5.5" in="shadowOffsetOuter1" result="shadowBlurOuter1"></feGaussianBlur>
            <feColorMatrix values="0 0 0 0 0.129064326   0 0 0 0 0.0247213418   0 0 0 0 0.310377038  0 0 0 0.235822771 0" type="matrix" in="shadowBlurOuter1"></feColorMatrix>
        </filter>
        <linearGradient x1="128.098055%" y1="46.4753042%" x2="0%" y2="54.6959723%" id="linearGradient-13">
            <stop stop-color="#C1DFFF" offset="0%"></stop>
            <stop stop-color="#64A9ED" offset="100%"></stop>
        </linearGradient>
        <linearGradient x1="88.1745563%" y1="43.7122215%" x2="0%" y2="56.1757424%" id="linearGradient-14">
            <stop stop-color="#A6AFED" offset="0%"></stop>
            <stop stop-color="#454BB5" offset="100%"></stop>
        </linearGradient>
        <linearGradient x1="88.1745563%" y1="34.5575731%" x2="0%" y2="65.1672725%" id="linearGradient-15">
            <stop stop-color="#A6AFED" offset="0%"></stop>
            <stop stop-color="#454BB5" offset="100%"></stop>
        </linearGradient>
        <linearGradient x1="102.214941%" y1="41.6694155%" x2="0%" y2="65.7412016%" id="linearGradient-16">
            <stop stop-color="#FDB6CB" offset="0%"></stop>
            <stop stop-color="#FD7082" offset="100%"></stop>
        </linearGradient>
        <path d="M19.7546393,43.1966927 L7.0391814,30.4812348 L34.8431835,2.48144102 L47.5586413,15.1968989 L19.7546393,43.1966927 Z M48.4362979,14.340968 L46.2380285,16.5375 L33.5475,3.85700154 L35.7457694,1.66046954 C37.9601385,-0.553489847 41.5510255,-0.553489847 43.7653945,1.66046954 L48.4362979,6.32768124 C50.6345674,8.54767335 50.6345674,12.1216461 48.4362979,14.340968 Z M7.10528214,30.4300765 L19.7271805,43.1130679 L0.4725,49.6125 L7.10528214,30.4300765 Z" id="path-17"></path>
        <filter x="-38.3%" y="-34.3%" width="176.6%" height="176.6%" filterUnits="objectBoundingBox" id="filter-18">
            <feOffset dx="0" dy="2" in="SourceAlpha" result="shadowOffsetOuter1"></feOffset>
            <feGaussianBlur stdDeviation="6" in="shadowOffsetOuter1" result="shadowBlurOuter1"></feGaussianBlur>
            <feColorMatrix values="0 0 0 0 0.129064326   0 0 0 0 0.0247213418   0 0 0 0 0.310377038  0 0 0 0.235822771 0" type="matrix" in="shadowBlurOuter1"></feColorMatrix>
        </filter>
        <linearGradient x1="88.1745563%" y1="11.6100599%" x2="0%" y2="87.7059051%" id="linearGradient-19">
            <stop stop-color="#A6AFED" offset="0%"></stop>
            <stop stop-color="#454BB5" offset="100%"></stop>
        </linearGradient>
    </defs>
    <g id="Artboard" stroke="none" stroke-width="1" fill="none" fill-rule="evenodd">
        <mask id="mask-2" fill="white">
            <use xlink:href="#path-1"></use>
        </mask>
        <g id="Mask"></g>
        <g id="1">
            <mask id="mask-4" fill="white">
                <use xlink:href="#path-3"></use>
            </mask>
            <g id="Mask"></g>
            <g mask="url(#mask-4)" id="Group-31">
                <g transform="translate(5.000000, 30.000000)">
                    <g>
                        <g id="brave-community">
                            <g id="Group" transform="translate(0.232590, 7.505657)">
                                <g id="community-a-link" transform="translate(0.000000, 1.000000)" fill="url(#linearGradient-5)" fill-rule="nonzero">
                                    <path d="M122.251897,101.729989 C101.225956,95.6757924 72.8052845,98.7906912 62.182262,101.729989 C46.2477287,106.138934 33.4273481,101.062191 20.6363753,83.5682553 C7.84540254,66.0743199 -9.35170325,54.5985211 6.3226747,22.7038956 C21.9970527,-9.19072988 69.6728825,3.96088272 98.6936328,0.887546502 C127.714382,-2.18578971 162.65878,1.64434189 154.362602,29.7116838 C146.066425,57.7790256 160.410542,65.0369465 153.997117,85.3319713 C149.7215,98.8619875 139.13976,104.327994 122.251897,101.729989 Z" id="community-a"></path>
                                </g>
                                <g id="Clipped" transform="translate(0.000000, 0.200000)">
                                    <mask id="mask-7" fill="white">
                                        <use xlink:href="#path-6"></use>
                                    </mask>
                                    <g id="community-a"></g>
                                    <g id="Group" mask="url(#mask-7)">
                                        <g transform="translate(140.360470, 67.772743)" id="community-e-link">
                                            <g transform="translate(0.000000, 0.200000)">
                                                <path d="M-4.61852778e-14,6.42630074 C-4.61852778e-14,3.31898064 2.51986174,0.8 5.61744783,0.8 L33.0147128,0.8 C36.1171435,0.8 38.6321606,3.32246713 38.6321606,6.42630074 L38.6321606,11.48923 C38.6321606,14.5965501 36.1122988,17.1155308 33.0147128,17.1155308 L5.61744783,17.1155308 C2.51501706,17.1155308 -4.61852778e-14,14.5930636 -4.61852778e-14,11.48923 L-4.61852778e-14,6.42630074 Z" id="community-e" fill="#FFFFFF" fill-rule="nonzero"></path>
                                            </g>
                                        </g>
                                    </g>
                                </g>
                                <g id="Clipped" transform="translate(0.000000, 0.200000)">
                                    <mask id="mask-9" fill="white">
                                        <use xlink:href="#path-8"></use>
                                    </mask>
                                    <g id="community-a"></g>
                                    <g id="Group" mask="url(#mask-9)">
                                        <g transform="translate(-17.735840, 39.360571)" id="community-g-link">
                                            <g transform="translate(0.000000, 0.200000)">
                                                <path d="M-2.84217094e-14,6.42630074 C-2.84217094e-14,3.31898064 2.51986174,0.8 5.61744783,0.8 L33.0147128,0.8 C36.1171435,0.8 38.6321606,3.32246713 38.6321606,6.42630074 L38.6321606,11.48923 C38.6321606,14.5965501 36.1122988,17.1155308 33.0147128,17.1155308 L5.61744783,17.1155308 C2.51501706,17.1155308 -2.84217094e-14,14.5930636 -2.84217094e-14,11.48923 L-2.84217094e-14,6.42630074 Z" id="community-g" fill="#FFFFFF" fill-rule="nonzero"></path>
                                            </g>
                                        </g>
                                    </g>
                                </g>
                                <g id="community-i-link" transform="translate(0.000000, 0.200000)" fill="#ECE9F6" fill-rule="nonzero" opacity="0">
                                    <path d="M122.251897,102.529989 C101.225956,96.4757924 72.8052845,99.5906912 62.182262,102.529989 C46.2477287,106.938934 33.4273481,101.862191 20.6363753,84.3682553 C7.84540254,66.8743199 -9.35170325,55.3985211 6.3226747,23.5038956 C21.9970527,-8.39072988 69.6728825,4.76088272 98.6936328,1.6875465 C127.714382,-1.38578971 162.65878,2.44434189 154.362602,30.5116838 C146.066425,58.5790256 160.410542,65.8369465 153.997117,86.1319713 C149.7215,99.6619875 139.13976,105.127994 122.251897,102.529989 Z" id="community-i"></path>
                                </g>
                            </g>
                            <ellipse id="Oval" fill="url(#linearGradient-10)" fill-rule="nonzero" cx="20.7930265" cy="31.2127" rx="5.37638585" ry="5.02698571"></ellipse>
                            <g id="community-l-link" transform="translate(30.162993, 0.671429)" fill-rule="nonzero">
                                <g id="community-l">
                                    <use fill="black" fill-opacity="1" filter="url(#filter-12)" xlink:href="#path-11"></use>
                                    <use fill="#FFFFFF" xlink:href="#path-11"></use>
                                </g>
                            </g>
                            <g id="Group" transform="translate(44.909344, 43.642857)" fill-rule="nonzero">
                                <rect id="Rectangle" stroke="#F2EEF9" stroke-width="1.33891213" fill="#F2EEF9" x="0" y="0" width="75.7426258" height="8.72857143" rx="1.33891213"></rect>
                                <rect id="Rectangle-Copy" stroke="#F2EEF9" stroke-width="1.33891213" fill="#F2EEF9" x="0" y="13.4285714" width="75.7426258" height="8.72857143" rx="1.33891213"></rect>
                                <rect id="Rectangle-Copy-5" fill="url(#linearGradient-13)" x="0" y="30.2142857" width="24.8006828" height="8.72857143" rx="1.33891213"></rect>
                            </g>
                            <g id="Group" transform="translate(30.725365, 0.531100)" fill-rule="nonzero">
                                <polygon id="Path" fill="#8168EF" points="0 0 103.783484 0 103.783484 10.1130571 0 10.1130571"></polygon>
                                <ellipse id="Oval" fill="#FFFFFF" cx="5.85430171" cy="4.79064286" rx="1.59662774" ry="1.59665714"></ellipse>
                                <ellipse id="Oval" fill="#FFFFFF" cx="11.1763942" cy="4.79064286" rx="1.59662774" ry="1.59665714"></ellipse>
                                <ellipse id="Oval" fill="#FFFFFF" cx="16.4991569" cy="4.79064286" rx="1.59662774" ry="1.59665714"></ellipse>
                            </g>
                            <g id="community-o-link" transform="translate(140.090343, 26.185714)" fill="#000000" fill-rule="nonzero">
                                <rect id="community-o" x="0" y="0" width="20.079169" height="8.10414286" rx="2.65171548"></rect>
                            </g>
                            <g id="community-o-link" transform="translate(140.090343, 26.185714)" fill="url(#linearGradient-14)" fill-rule="nonzero">
                                <rect id="community-o" x="0" y="0" width="20.079169" height="8.10414286" rx="2.65171548"></rect>
                            </g>
                            <g id="community-q-link" transform="translate(18.768084, 70.500000)" fill="#000000" fill-rule="nonzero">
                                <path d="M0,2.66509136 C0,1.19320176 1.19387082,0 2.65675692,0 L12.3975655,0 C13.8648518,0 15.0543224,1.18672516 15.0543224,2.66509136 L15.0543224,6.85698644 C15.0543224,8.32887604 13.8604516,9.5220778 12.3975655,9.5220778 L2.65675692,9.5220778 C1.18947057,9.5220778 0,8.33535331 0,6.85698644 L0,2.66509136 Z" id="community-q"></path>
                            </g>
                            <g id="community-q-link" transform="translate(18.768084, 70.500000)" fill="url(#linearGradient-15)" fill-rule="nonzero">
                                <path d="M0,2.66509136 C0,1.19320176 1.19387082,0 2.65675692,0 L12.3975655,0 C13.8648518,0 15.0543224,1.18672516 15.0543224,2.66509136 L15.0543224,6.85698644 C15.0543224,8.32887604 13.8604516,9.5220778 12.3975655,9.5220778 L2.65675692,9.5220778 C1.18947057,9.5220778 0,8.33535331 0,6.85698644 L0,2.66509136 Z" id="community-q"></path>
                            </g>
                            <g id="community-s-link" transform="translate(125.641104, 37.100000)" fill="url(#linearGradient-16)" fill-rule="nonzero">
                                <path d="M0.358895897,3.56396658 C0.358895897,2.09269845 1.54410913,0.9 3.01587214,0.9 L19.459129,0.9 C20.9265365,0.9 22.1161052,2.0927619 22.1161052,3.56396658 L22.1161052,10.4438256 C22.1161052,11.9150938 20.9308927,13.1077922 19.459129,13.1077922 L3.01587214,13.1077922 C1.54846467,13.1077922 0.358895897,11.9150303 0.358895897,10.4438256 L0.358895897,3.56396658 Z" id="community-s"></path>
                            </g>
                        </g>
                        <path d="M50.492,33.192 C50.828,33.192 51.1720001,33.1400001 51.524,33.036 C51.8759999,32.9319999 52.1920001,32.7759999 52.472,32.568 C52.7519999,32.3600001 52.982,32.094 53.162,31.77 C53.342,31.446 53.432,31.0599999 53.432,30.612 C53.432,30.252 53.378,29.934 53.27,29.658 C53.162,29.382 53.006,29.136 52.802,28.92 C52.598,28.704 52.3540001,28.518 52.07,28.362 C51.7859999,28.206 51.4720001,28.068 51.128,27.948 L50.588,27.768 C50.0999999,27.6 49.7440001,27.426 49.52,27.246 C49.2959999,27.066 49.184,26.8479999 49.184,26.592 C49.184,26.328 49.3000001,26.1140001 49.532,25.95 C49.7639999,25.7859999 50.0560001,25.704 50.408,25.704 C50.7760001,25.704 51.0659999,25.8 51.278,25.992 C51.4900001,26.184 51.6359999,26.4 51.716,26.64 L53.144,26.04 C53.0800001,25.848 52.9799999,25.644 52.844,25.428 C52.7080001,25.212 52.5299999,25.014 52.31,24.834 C52.0900001,24.654 51.8219999,24.5060001 51.506,24.39 C51.1900001,24.2739999 50.816,24.216 50.384,24.216 C49.9679999,24.216 49.5899999,24.2780001 49.25,24.402 C48.9100001,24.5259999 48.6179999,24.6980001 48.374,24.918 C48.1300001,25.1379999 47.942,25.3940001 47.81,25.686 C47.678,25.9779999 47.612,26.292 47.612,26.628 C47.612,26.9559999 47.6740001,27.2499999 47.798,27.51 C47.9219999,27.7700001 48.08,27.996 48.272,28.188 C48.464,28.38 48.6779999,28.5440001 48.914,28.68 C49.1500001,28.8159999 49.3840001,28.9239999 49.616,29.004 L50.144,29.196 C50.456,29.3079999 50.7179999,29.4159999 50.93,29.52 C51.1420001,29.6240001 51.314,29.7320001 51.446,29.844 C51.578,29.9559999 51.6719999,30.0759999 51.728,30.204 C51.7840001,30.3320001 51.812,30.4760001 51.812,30.636 C51.812,30.804 51.776,30.9519999 51.704,31.08 C51.632,31.2080001 51.5339999,31.314 51.41,31.398 C51.2860001,31.482 51.146,31.5459999 50.99,31.59 C50.834,31.6340001 50.672,31.656 50.504,31.656 C50.048,31.656 49.6799999,31.5140001 49.4,31.23 C49.1200001,30.9459999 48.9239999,30.588 48.812,30.156 L47.288,30.756 C47.408,31.1559999 47.5720001,31.506 47.78,31.806 C47.9879999,32.106 48.2320001,32.3600001 48.512,32.568 C48.7919999,32.7759999 49.1,32.9319999 49.436,33.036 C49.772,33.1400001 50.1239999,33.192 50.492,33.192 Z M55.6355,26.268 C55.9154999,26.268 56.1554999,26.1699999 56.3555,25.974 C56.5555001,25.7780001 56.6555,25.5399999 56.6555,25.26 C56.6555,24.9800001 56.5555001,24.7419999 56.3555,24.546 C56.1554999,24.3500001 55.9154999,24.252 55.6355,24.252 C55.4995001,24.252 55.3694999,24.2780001 55.2455,24.33 C55.1215001,24.3819999 55.0135001,24.4539999 54.9215,24.546 C54.8294999,24.6380001 54.7574999,24.744 54.7055,24.864 C54.6535001,24.984 54.6275,25.116 54.6275,25.26 C54.6275,25.404 54.6535001,25.536 54.7055,25.656 C54.7574999,25.776 54.8294999,25.8819999 54.9215,25.974 C55.0135001,26.0660001 55.1215001,26.1380001 55.2455,26.19 C55.3694999,26.2419999 55.4995001,26.268 55.6355,26.268 Z M56.4275,33 L56.4275,27.12 L54.8555,27.12 L54.8555,33 L56.4275,33 Z M60.707,35.784 C61.1710001,35.784 61.5929999,35.7099999 61.973,35.562 C62.3530001,35.4140001 62.6789999,35.202 62.951,34.926 C63.2230001,34.65 63.4349999,34.314 63.587,33.918 C63.7390001,33.522 63.815,33.0759999 63.815,32.58 L63.815,27.12 L62.315,27.12 L62.315,27.756 L62.219,27.756 C62.0350001,27.5000001 61.793,27.2979999 61.493,27.15 C61.193,27.0020001 60.839,26.928 60.431,26.928 C60.0790001,26.928 59.7370001,27 59.405,27.144 C59.0729999,27.288 58.7789999,27.4940001 58.523,27.762 C58.2670001,28.0299999 58.0589999,28.3539999 57.899,28.734 C57.7390001,29.1140001 57.659,29.5359999 57.659,30 C57.659,30.4640001 57.7390001,30.8840001 57.899,31.26 C58.0589999,31.6359999 58.2670001,31.9580001 58.523,32.226 C58.7789999,32.4939999 59.0729999,32.7 59.405,32.844 C59.7370001,32.988 60.0790001,33.06 60.431,33.06 C60.839,33.06 61.193,32.9859999 61.493,32.838 C61.793,32.6900001 62.0350001,32.4879999 62.219,32.232 L62.315,32.232 L62.315,32.64 C62.315,33.192 62.171,33.6219999 61.883,33.93 C61.595,34.2380001 61.2029999,34.392 60.707,34.392 C60.395,34.392 60.1109999,34.3059999 59.855,34.134 C59.5990001,33.9620001 59.4149999,33.72 59.303,33.408 L57.803,34.008 C57.875,34.2159999 57.9910001,34.4240001 58.151,34.632 C58.3109999,34.8399999 58.511,35.0300001 58.751,35.202 C58.991,35.3739999 59.273,35.514 59.597,35.622 C59.921,35.73 60.2909999,35.784 60.707,35.784 Z M60.767,31.644 C60.575,31.644 60.3869999,31.608 60.203,31.536 C60.0190001,31.464 59.855,31.3580001 59.711,31.218 C59.567,31.0779999 59.4509999,30.906 59.363,30.702 C59.2750001,30.498 59.231,30.264 59.231,30 C59.231,29.736 59.2750001,29.502 59.363,29.298 C59.4509999,29.094 59.567,28.92 59.711,28.776 C59.855,28.632 60.0190001,28.524 60.203,28.452 C60.3869999,28.38 60.575,28.344 60.767,28.344 C60.959,28.344 61.1489999,28.38 61.337,28.452 C61.5250001,28.524 61.691,28.6299999 61.835,28.77 C61.979,28.9100001 62.0950001,29.0840001 62.183,29.292 C62.2709999,29.4999999 62.315,29.736 62.315,30 C62.315,30.264 62.2709999,30.498 62.183,30.702 C62.0950001,30.906 61.979,31.0779999 61.835,31.218 C61.691,31.3580001 61.5250001,31.464 61.337,31.536 C61.1489999,31.608 60.959,31.644 60.767,31.644 Z M66.9185,33 L66.9185,30.12 C66.9185,29.88 66.9485,29.6540001 67.0085,29.442 C67.0685,29.2299999 67.1564999,29.046 67.2725,28.89 C67.3885001,28.734 67.5284999,28.6100001 67.6925,28.518 C67.8565001,28.4259999 68.0465,28.38 68.2625,28.38 C68.6225,28.38 68.8964999,28.482 69.0845,28.686 C69.2725001,28.89 69.3665,29.2040001 69.3665,29.628 L69.3665,33 L70.9385,33 L70.9385,29.436 C70.9385,29.0600001 70.8925001,28.7180001 70.8005,28.41 C70.7084999,28.1019999 70.5725,27.8379999 70.3925,27.618 C70.2125,27.3980001 69.9824999,27.228 69.7025,27.108 C69.4225001,26.988 69.0985001,26.928 68.7305,26.928 C68.3305001,26.928 67.9745,27.0140001 67.6625,27.186 C67.3505,27.3579999 67.1024999,27.5919999 66.9185,27.888 L66.8225,27.888 L66.8225,27.12 L65.3465,27.12 L65.3465,33 L66.9185,33 Z M78.3455,33.192 C78.8575001,33.192 79.3195001,33.1040001 79.7315,32.928 C80.1434999,32.7519999 80.4955001,32.5059999 80.7875,32.19 C81.0794999,31.8740001 81.3035,31.494 81.4595,31.05 C81.6155,30.606 81.6935,30.1160001 81.6935,29.58 L81.6935,24.408 L80.0735,24.408 L80.0735,29.676 C80.0735,29.964 80.0375,30.228 79.9655,30.468 C79.8935,30.708 79.7855,30.9159999 79.6415,31.092 C79.4975,31.2680001 79.3175,31.4060001 79.1015,31.506 C78.8855,31.6059999 78.6335,31.656 78.3455,31.656 C78.0655001,31.656 77.8175,31.6059999 77.6015,31.506 C77.3855,31.4060001 77.2055,31.2680001 77.0615,31.092 C76.9175,30.9159999 76.8095,30.708 76.7375,30.468 C76.6655,30.228 76.6295,29.964 76.6295,29.676 L76.6295,24.408 L75.0095,24.408 L75.0095,29.58 C75.0095,30.1479999 75.0895001,30.654 75.2495,31.098 C75.4094999,31.542 75.6335,31.92 75.9215,32.232 C76.2095,32.544 76.5595001,32.7819999 76.9715,32.946 C77.3834999,33.1100001 77.8415,33.192 78.3455,33.192 Z M84.749,35.592 L84.749,33.132 L84.653,32.292 L84.749,32.292 C84.893,32.5400001 85.1170001,32.7519999 85.421,32.928 C85.7249999,33.1040001 86.1010001,33.192 86.549,33.192 C86.9249999,33.192 87.2830001,33.114 87.623,32.958 C87.9629999,32.802 88.2629999,32.586 88.523,32.31 C88.7830001,32.034 88.9889999,31.704 89.141,31.32 C89.2930001,30.936 89.369,30.516 89.369,30.06 C89.369,29.604 89.2930001,29.184 89.141,28.8 C88.9889999,28.416 88.7830001,28.086 88.523,27.81 C88.2629999,27.534 87.9629999,27.318 87.623,27.162 C87.2830001,27.006 86.9249999,26.928 86.549,26.928 C86.1010001,26.928 85.7249999,27.0159999 85.421,27.192 C85.1170001,27.3680001 84.893,27.5799999 84.749,27.828 L84.653,27.828 L84.653,27.12 L83.177,27.12 L83.177,35.592 L84.749,35.592 Z M86.225,31.74 C86.0170001,31.74 85.8190001,31.7019999 85.631,31.626 C85.4429999,31.5500001 85.277,31.44 85.133,31.296 C84.989,31.152 84.8729999,30.9759999 84.785,30.768 C84.6970001,30.5600001 84.653,30.324 84.653,30.06 C84.653,29.796 84.6970001,29.5599999 84.785,29.352 C84.8729999,29.1440001 84.989,28.968 85.133,28.824 C85.277,28.68 85.4429999,28.5699999 85.631,28.494 C85.8190001,28.4180001 86.0170001,28.38 86.225,28.38 C86.4329999,28.38 86.6309999,28.4199999 86.819,28.5 C87.0070001,28.5800001 87.173,28.692 87.317,28.836 C87.461,28.98 87.5770001,29.1560001 87.665,29.364 C87.7529999,29.5719999 87.797,29.8040001 87.797,30.06 C87.797,30.3159999 87.7529999,30.5480001 87.665,30.756 C87.5770001,30.9639999 87.461,31.14 87.317,31.284 C87.173,31.428 87.0070001,31.5399999 86.819,31.62 C86.6309999,31.7000001 86.4329999,31.74 86.225,31.74 Z" id="SignUp" fill="#000000" fill-rule="nonzero"></path>
                    </g>
                </g>
            </g>
        </g>
        <g id="pen-2" transform="translate(104.000000, 97.000000)" fill-rule="nonzero">
            <g id="Shape">
                <use fill="black" fill-opacity="1" filter="url(#filter-18)" xlink:href="#path-17"></use>
                <use fill="#FFFFFF" xlink:href="#path-17"></use>
            </g>
        </g>
        <g id="pen-2" transform="translate(108.000000, 100.000000)" fill="url(#linearGradient-19)" fill-rule="nonzero">
            <path d="M14.9848912,38.2304348 L4.96956522,28.2151088 L29.1933697,3.99130435 L39.2086957,14.0066303 L14.9848912,38.2304348 Z M14.9848912,38.2304348 L4.96956522,28.2151088 L29.1933697,3.99130435 L39.2086957,14.0066303 L14.9848912,38.2304348 Z M4.56082502,29.5043478 L13.6956522,38.639175 L0,43.2 L4.56082502,29.5043478 Z M42.0495341,11.0282511 L40.3590577,12.7173913 L30.6,2.96604673 L32.2904763,1.27690648 C33.9933333,-0.425635493 36.7547372,-0.425635493 38.4575942,1.27690648 L42.0495341,4.86600746 C43.7400104,6.57318861 43.7400104,9.32158532 42.0495341,11.0282511 Z" id="Shape"></path>
        </g>
    </g>
</svg>