<?xml version="1.0" encoding="UTF-8"?>
<svg width="175px" height="175px" viewBox="0 0 175 175" version="1.1" xmlns="http://www.w3.org/2000/svg" xmlns:xlink="http://www.w3.org/1999/xlink">
    <!-- Generator: Sketch 64 (93537) - https://sketch.com -->
    <title>Slice</title>
    <desc>Created with Sketch.</desc>
    <defs>
        <linearGradient x1="94.3305198%" y1="50%" x2="0%" y2="94.0186015%" id="linearGradient-1">
            <stop stop-color="#FFD476" offset="0%"></stop>
            <stop stop-color="#F3BC5F" offset="100%"></stop>
        </linearGradient>
        <path d="M0.532137175,2.63869999 C0.532137175,1.38708874 1.65246784,0.372457345 3.04711654,0.372457345 L96.2680229,0.372457345 C97.6570078,0.372457345 98.7830025,1.38300375 98.7830025,2.63869999 L98.7830025,93.1062144 C98.7830025,94.3578256 97.6626719,95.3724573 96.2680229,95.3724573 L3.04711654,95.3724573 C1.65813182,95.3724573 0.532137175,94.3619105 0.532137175,93.1062144 L0.532137175,2.63869999 Z" id="path-2"></path>
        <filter x="-17.8%" y="-16.3%" width="135.6%" height="136.8%" filterUnits="objectBoundingBox" id="filter-3">
            <feOffset dx="0" dy="2" in="SourceAlpha" result="shadowOffsetOuter1"></feOffset>
            <feGaussianBlur stdDeviation="5.5" in="shadowOffsetOuter1" result="shadowBlurOuter1"></feGaussianBlur>
            <feColorMatrix values="0 0 0 0 0.129064326   0 0 0 0 0.0247213418   0 0 0 0 0.310377038  0 0 0 0.235822771 0" type="matrix" in="shadowBlurOuter1"></feColorMatrix>
        </filter>
        <linearGradient x1="88.1745563%" y1="43.6681732%" x2="0%" y2="56.2190058%" id="linearGradient-4">
            <stop stop-color="#A6AFED" offset="0%"></stop>
            <stop stop-color="#454BB5" offset="100%"></stop>
        </linearGradient>
        <linearGradient x1="88.1745563%" y1="34.449393%" x2="0%" y2="65.2735251%" id="linearGradient-5">
            <stop stop-color="#A6AFED" offset="0%"></stop>
            <stop stop-color="#454BB5" offset="100%"></stop>
        </linearGradient>
        <linearGradient x1="87.2790539%" y1="8.87880878%" x2="17.6905669%" y2="66.1739242%" id="linearGradient-6">
            <stop stop-color="#7FFFF0" offset="0%"></stop>
            <stop stop-color="#24D6A3" offset="100%"></stop>
        </linearGradient>
    </defs>
    <g id="основное" stroke="none" stroke-width="1" fill="none" fill-rule="evenodd">
        <g id="how-it-works_wellneess_seekers" transform="translate(-937.000000, -1000.000000)">
            <g id="3" transform="translate(937.000000, 1000.000000)">
                <g transform="translate(2.000000, 30.000000)" id="2-copy">
                    <g>
                        <g id="Group-31">
                            <g id="brave-community-copy" fill-rule="nonzero">
                                <g id="Group" transform="translate(0.220191, 8.080374)" fill="#ECE9F6" opacity="0.200000003">
                                    <g id="community-i-link">
                                        <path d="M115.670199,96.6434892 C95.7651545,90.8920028 68.859594,93.8511566 58.8028867,96.6434892 C43.7178261,100.831988 31.5809023,96.0090816 19.4718186,79.3898426 C7.36273478,62.7706039 -8.91759027,51.868595 5.92118382,21.5687008 C20.7599579,-8.73119339 65.8941809,3.76283858 93.3678298,0.843169177 C120.841478,-2.07650023 153.922983,1.5621248 146.069076,28.2260996 C138.21517,54.8900743 151.7946,61.7850992 145.723076,81.0653727 C141.675393,93.9188881 131.657767,99.1115938 115.670199,96.6434892 Z" id="community-i" transform="translate(73.668964, 49.035201) scale(1, -1) translate(-73.668964, -49.035201) "></path>
                                    </g>
                                </g>
                                <ellipse id="Oval" fill="url(#linearGradient-1)" cx="27.267485" cy="29.652065" rx="5.08976978" ry="4.77563643"></ellipse>
                                <g id="community-l-link" transform="translate(36.137937, 0.637857)">
                                    <g id="community-l">
                                        <use fill="black" fill-opacity="1" filter="url(#filter-3)" xlink:href="#path-2"></use>
                                        <use fill="#FFFFFF" xlink:href="#path-2"></use>
                                    </g>
                                </g>
                                <g id="Group" transform="translate(50.098158, 66.460714)" fill="#F2EEF9" stroke="#F2EEF9" stroke-width="1.26911103">
                                    <rect id="Rectangle-Copy-25" x="0" y="0.84" width="71.704773" height="17.48" rx="1.26911103"></rect>
                                </g>
                                <g id="Group" transform="translate(36.670329, 0.504545)">
                                    <polygon id="Path" fill="#8168EF" points="0 0 98.2507684 0 98.2507684 9.60740429 0 9.60740429"></polygon>
                                    <ellipse id="Oval" fill="#FFFFFF" cx="5.54220786" cy="4.55111071" rx="1.51151123" ry="1.51682429"></ellipse>
                                    <ellipse id="Oval" fill="#FFFFFF" cx="10.5805786" cy="4.55111071" rx="1.51151123" ry="1.51682429"></ellipse>
                                    <ellipse id="Oval" fill="#FFFFFF" cx="15.619584" cy="4.55111071" rx="1.51151123" ry="1.51682429"></ellipse>
                                </g>
                                <g id="community-o-link" transform="translate(141.205041, 31.876429)" fill="url(#linearGradient-4)">
                                    <rect id="community-o" x="0.79495925" y="0.123571429" width="19.008745" height="7.69893571" rx="2.51347439"></rect>
                                </g>
                                <g id="community-q-link" transform="translate(25.350493, 66.975000)" fill="#000000">
                                    <path d="M0,2.53183679 C0,1.13354167 1.13022535,0 2.51512474,0 L11.7366491,0 C13.1257141,0 14.2517739,1.1273889 14.2517739,2.53183679 L14.2517739,6.51413712 C14.2517739,7.91243224 13.1215485,9.04597391 11.7366491,9.04597391 L2.51512474,9.04597391 C1.12605969,9.04597391 0,7.91858565 0,6.51413712 L0,2.53183679 Z" id="community-q"></path>
                                </g>
                                <g id="community-q-link" transform="translate(25.350493, 66.975000)" fill="url(#linearGradient-5)">
                                    <path d="M0,2.53183679 C0,1.13354167 1.13022535,0 2.51512474,0 L11.7366491,0 C13.1257141,0 14.2517739,1.1273889 14.2517739,2.53183679 L14.2517739,6.51413712 C14.2517739,7.91243224 13.1215485,9.04597391 11.7366491,9.04597391 L2.51512474,9.04597391 C1.12605969,9.04597391 0,7.91858565 0,6.51413712 L0,2.53183679 Z" id="community-q"></path>
                                </g>
                                <g id="community-s-link" transform="translate(128.899264, 18.045000)" fill="#FFAF5E">
                                    <path d="M0,2.53076825 C0,1.13306353 1.12202931,0 2.51533237,0 L18.0819963,0 C19.471176,0 20.5973287,1.13312381 20.5973287,2.53076825 L20.5973287,9.06663429 C20.5973287,10.4643391 19.4753,11.5974026 18.0819963,11.5974026 L2.51533237,11.5974026 C1.12615265,11.5974026 0,10.4642788 0,9.06663429 L0,2.53076825 Z" id="community-s"></path>
                                </g>
                            </g>
                            <path d="M126,70.027027 L148,63 L170,70.027027 L170,88.2785238 C170,96.1701972 165.97537,103.516963 159.32488,107.765433 L148,115 L148,115 L136.67512,107.765433 C130.02463,103.516963 126,96.1701972 126,88.2785238 L126,70.027027 L126,70.027027 Z" id="Rectangle-13" fill="url(#linearGradient-6)"></path>
                            <polyline id="Path-11" stroke="#FFFFFF" points="141 87.3803362 147.423701 93 159 80"></polyline>
                        </g>
                        <path d="M56.398,43.192 C57.1099999,43.192 57.754,43.0579999 58.33,42.79 C58.906,42.5220001 59.4060001,42.1320001 59.83,41.62 L58.678,40.528 C58.39,40.888 58.06,41.1660001 57.688,41.362 C57.316,41.5579999 56.89,41.656 56.41,41.656 C56.0100001,41.656 55.6339999,41.5860001 55.282,41.446 C54.9300001,41.3059999 54.6240001,41.1079999 54.364,40.852 C54.1039999,40.5960001 53.898,40.2859999 53.746,39.922 C53.5939999,39.5580001 53.518,39.1519999 53.518,38.704 C53.518,38.2560001 53.5939999,37.8499999 53.746,37.486 C53.898,37.1220001 54.1039999,36.8119999 54.364,36.556 C54.6240001,36.3000001 54.9300001,36.1020001 55.282,35.962 C55.6339999,35.8219999 56.0100001,35.752 56.41,35.752 C56.866,35.752 57.2599999,35.8399999 57.592,36.016 C57.9240001,36.1920001 58.2180001,36.4279999 58.474,36.724 L59.614,35.62 C59.206,35.164 58.7400001,34.816 58.216,34.576 C57.6919999,34.336 57.0859999,34.216 56.398,34.216 C55.7580001,34.216 55.1640001,34.3320001 54.616,34.564 C54.0679999,34.7959999 53.5939999,35.1120001 53.194,35.512 C52.7940001,35.9119999 52.4779999,36.3859999 52.246,36.934 C52.0140001,37.4820001 51.898,38.0719999 51.898,38.704 C51.898,39.3360001 52.0140001,39.9259999 52.246,40.474 C52.4779999,41.0220001 52.7940001,41.4960001 53.194,41.896 C53.5939999,42.2959999 54.0679999,42.6120001 54.616,42.844 C55.1640001,43.0759999 55.7580001,43.192 56.398,43.192 Z M63.718,43.192 C64.174,43.192 64.5919999,43.114 64.972,42.958 C65.3520001,42.802 65.68,42.586 65.956,42.31 C66.232,42.034 66.448,41.704 66.604,41.32 C66.76,40.936 66.838,40.516 66.838,40.06 C66.838,39.604 66.76,39.184 66.604,38.8 C66.448,38.416 66.232,38.086 65.956,37.81 C65.68,37.534 65.3520001,37.318 64.972,37.162 C64.5919999,37.006 64.174,36.928 63.718,36.928 C63.262,36.928 62.8440001,37.006 62.464,37.162 C62.0839999,37.318 61.756,37.534 61.48,37.81 C61.204,38.086 60.988,38.416 60.832,38.8 C60.676,39.184 60.598,39.604 60.598,40.06 C60.598,40.516 60.676,40.936 60.832,41.32 C60.988,41.704 61.204,42.034 61.48,42.31 C61.756,42.586 62.0839999,42.802 62.464,42.958 C62.8440001,43.114 63.262,43.192 63.718,43.192 Z M63.718,41.74 C63.5100001,41.74 63.3139999,41.7019999 63.13,41.626 C62.9460001,41.5500001 62.782,41.44 62.638,41.296 C62.494,41.152 62.38,40.9759999 62.296,40.768 C62.212,40.5600001 62.17,40.324 62.17,40.06 C62.17,39.796 62.212,39.5599999 62.296,39.352 C62.38,39.1440001 62.494,38.968 62.638,38.824 C62.782,38.68 62.9460001,38.5699999 63.13,38.494 C63.3139999,38.4180001 63.5100001,38.38 63.718,38.38 C63.9180001,38.38 64.1119999,38.4180001 64.3,38.494 C64.4880001,38.5699999 64.654,38.68 64.798,38.824 C64.942,38.968 65.056,39.1440001 65.14,39.352 C65.224,39.5599999 65.266,39.796 65.266,40.06 C65.266,40.324 65.224,40.5600001 65.14,40.768 C65.056,40.9759999 64.942,41.152 64.798,41.296 C64.654,41.44 64.4880001,41.5500001 64.3,41.626 C64.1119999,41.7019999 63.9180001,41.74 63.718,41.74 Z M69.418,43 L69.418,40.12 C69.418,39.88 69.448,39.6540001 69.508,39.442 C69.568,39.2299999 69.6559999,39.046 69.772,38.89 C69.8880001,38.734 70.0279999,38.6100001 70.192,38.518 C70.3560001,38.4259999 70.546,38.38 70.762,38.38 C71.122,38.38 71.3959999,38.482 71.584,38.686 C71.7720001,38.89 71.866,39.2040001 71.866,39.628 L71.866,43 L73.438,43 L73.438,39.436 C73.438,39.0600001 73.3920001,38.7180001 73.3,38.41 C73.2079999,38.1019999 73.072,37.8379999 72.892,37.618 C72.712,37.3980001 72.4819999,37.228 72.202,37.108 C71.9220001,36.988 71.5980001,36.928 71.23,36.928 C70.8300001,36.928 70.474,37.0140001 70.162,37.186 C69.85,37.3579999 69.6019999,37.5919999 69.418,37.888 L69.322,37.888 L69.322,37.12 L67.846,37.12 L67.846,43 L69.418,43 Z M77.338,43.096 C77.5939999,43.096 77.8279999,43.0740001 78.04,43.03 C78.2520001,42.9859999 78.4500001,42.9199999 78.634,42.832 L78.19,41.452 C78.118,41.5 78.0420001,41.5380001 77.962,41.566 C77.8819999,41.5939999 77.7739999,41.608 77.638,41.608 C77.4300001,41.608 77.2699999,41.5440001 77.158,41.416 C77.0779999,41.3359999 77.0239999,41.2380001 76.996,41.122 C76.9680001,41.0059999 76.954,40.8799999 76.954,40.744 L76.954,38.464 L78.394,38.464 L78.394,37.12 L76.954,37.12 L76.954,35.32 L75.382,35.32 L75.382,37.12 L74.35,37.12 L74.35,38.464 L75.382,38.464 L75.382,41.044 C75.382,41.7079999 75.5700001,42.22 75.946,42.58 C76.1059999,42.7399999 76.3039999,42.8659999 76.54,42.958 C76.7760001,43.0500001 77.0419999,43.096 77.338,43.096 Z M81.118,43 L81.118,40.12 C81.118,39.88 81.1519999,39.658 81.22,39.454 C81.2880001,39.25 81.3840001,39.0720001 81.508,38.92 C81.6319999,38.7679999 81.7819999,38.65 81.958,38.566 C82.1340001,38.482 82.33,38.44 82.546,38.44 C82.714,38.44 82.8559999,38.4540001 82.972,38.482 C83.0880001,38.5099999 83.194,38.548 83.29,38.596 L83.71,37.168 C83.6059999,37.1040001 83.4799999,37.0519999 83.332,37.012 C83.1840001,36.9720001 83.0059999,36.952 82.798,36.952 C82.63,36.952 82.4599999,36.976 82.288,37.024 C82.1160001,37.072 81.9559999,37.1400001 81.808,37.228 C81.6600001,37.3159999 81.526,37.42 81.406,37.54 C81.286,37.66 81.19,37.792 81.118,37.936 L81.022,37.936 L81.022,37.12 L79.546,37.12 L79.546,43 L81.118,43 Z M87.214,43.192 C87.67,43.192 88.0879999,43.114 88.468,42.958 C88.8480001,42.802 89.176,42.586 89.452,42.31 C89.728,42.034 89.944,41.704 90.1,41.32 C90.256,40.936 90.334,40.516 90.334,40.06 C90.334,39.604 90.256,39.184 90.1,38.8 C89.944,38.416 89.728,38.086 89.452,37.81 C89.176,37.534 88.8480001,37.318 88.468,37.162 C88.0879999,37.006 87.67,36.928 87.214,36.928 C86.758,36.928 86.3400001,37.006 85.96,37.162 C85.5799999,37.318 85.252,37.534 84.976,37.81 C84.7,38.086 84.484,38.416 84.328,38.8 C84.172,39.184 84.094,39.604 84.094,40.06 C84.094,40.516 84.172,40.936 84.328,41.32 C84.484,41.704 84.7,42.034 84.976,42.31 C85.252,42.586 85.5799999,42.802 85.96,42.958 C86.3400001,43.114 86.758,43.192 87.214,43.192 Z M87.214,41.74 C87.0060001,41.74 86.8099999,41.7019999 86.626,41.626 C86.4420001,41.5500001 86.278,41.44 86.134,41.296 C85.99,41.152 85.876,40.9759999 85.792,40.768 C85.708,40.5600001 85.666,40.324 85.666,40.06 C85.666,39.796 85.708,39.5599999 85.792,39.352 C85.876,39.1440001 85.99,38.968 86.134,38.824 C86.278,38.68 86.4420001,38.5699999 86.626,38.494 C86.8099999,38.4180001 87.0060001,38.38 87.214,38.38 C87.4140001,38.38 87.6079999,38.4180001 87.796,38.494 C87.9840001,38.5699999 88.15,38.68 88.294,38.824 C88.438,38.968 88.552,39.1440001 88.636,39.352 C88.72,39.5599999 88.762,39.796 88.762,40.06 C88.762,40.324 88.72,40.5600001 88.636,40.768 C88.552,40.9759999 88.438,41.152 88.294,41.296 C88.15,41.44 87.9840001,41.5500001 87.796,41.626 C87.6079999,41.7019999 87.4140001,41.74 87.214,41.74 Z M92.914,43 L92.914,34.408 L91.342,34.408 L91.342,43 L92.914,43 Z M99.13,45.592 L102.814,37.12 L101.062,37.12 L99.634,40.684 L99.55,40.684 L98.062,37.12 L96.274,37.12 L98.746,42.712 L97.438,45.592 L99.13,45.592 Z M106.318,43.192 C106.774,43.192 107.192,43.114 107.572,42.958 C107.952,42.802 108.28,42.586 108.556,42.31 C108.832,42.034 109.048,41.704 109.204,41.32 C109.36,40.936 109.438,40.516 109.438,40.06 C109.438,39.604 109.36,39.184 109.204,38.8 C109.048,38.416 108.832,38.086 108.556,37.81 C108.28,37.534 107.952,37.318 107.572,37.162 C107.192,37.006 106.774,36.928 106.318,36.928 C105.862,36.928 105.444,37.006 105.064,37.162 C104.684,37.318 104.356,37.534 104.08,37.81 C103.804,38.086 103.588,38.416 103.432,38.8 C103.276,39.184 103.198,39.604 103.198,40.06 C103.198,40.516 103.276,40.936 103.432,41.32 C103.588,41.704 103.804,42.034 104.08,42.31 C104.356,42.586 104.684,42.802 105.064,42.958 C105.444,43.114 105.862,43.192 106.318,43.192 Z M106.318,41.74 C106.11,41.74 105.914,41.7019999 105.73,41.626 C105.546,41.5500001 105.382,41.44 105.238,41.296 C105.094,41.152 104.98,40.9759999 104.896,40.768 C104.812,40.5600001 104.77,40.324 104.77,40.06 C104.77,39.796 104.812,39.5599999 104.896,39.352 C104.98,39.1440001 105.094,38.968 105.238,38.824 C105.382,38.68 105.546,38.5699999 105.73,38.494 C105.914,38.4180001 106.11,38.38 106.318,38.38 C106.518,38.38 106.712,38.4180001 106.9,38.494 C107.088,38.5699999 107.254,38.68 107.398,38.824 C107.542,38.968 107.656,39.1440001 107.74,39.352 C107.824,39.5599999 107.866,39.796 107.866,40.06 C107.866,40.324 107.824,40.5600001 107.74,40.768 C107.656,40.9759999 107.542,41.152 107.398,41.296 C107.254,41.44 107.088,41.5500001 106.9,41.626 C106.712,41.7019999 106.518,41.74 106.318,41.74 Z M112.606,43.192 C113.006,43.192 113.362,43.1059999 113.674,42.934 C113.986,42.7620001 114.234,42.5280001 114.418,42.232 L114.514,42.232 L114.514,43 L115.99,43 L115.99,37.12 L114.418,37.12 L114.418,40 C114.418,40.24 114.388,40.4659999 114.328,40.678 C114.268,40.8900001 114.18,41.074 114.064,41.23 C113.948,41.386 113.808,41.5099999 113.644,41.602 C113.48,41.6940001 113.29,41.74 113.074,41.74 C112.714,41.74 112.44,41.638 112.252,41.434 C112.064,41.23 111.97,40.9159999 111.97,40.492 L111.97,37.12 L110.398,37.12 L110.398,40.684 C110.398,41.4439999 110.58,42.052 110.944,42.508 C111.308,42.964 111.862,43.192 112.606,43.192 Z M118.906,43 L118.906,40.12 C118.906,39.88 118.94,39.658 119.008,39.454 C119.076,39.25 119.172,39.0720001 119.296,38.92 C119.42,38.7679999 119.57,38.65 119.746,38.566 C119.922,38.482 120.118,38.44 120.334,38.44 C120.502,38.44 120.644,38.4540001 120.76,38.482 C120.876,38.5099999 120.982,38.548 121.078,38.596 L121.498,37.168 C121.394,37.1040001 121.268,37.0519999 121.12,37.012 C120.972,36.9720001 120.794,36.952 120.586,36.952 C120.418,36.952 120.248,36.976 120.076,37.024 C119.904,37.072 119.744,37.1400001 119.596,37.228 C119.448,37.3159999 119.314,37.42 119.194,37.54 C119.074,37.66 118.978,37.792 118.906,37.936 L118.81,37.936 L118.81,37.12 L117.334,37.12 L117.334,43 L118.906,43 Z M67.984,60.592 L67.984,58.132 L67.888,57.292 L67.984,57.292 C68.128,57.5400001 68.3520001,57.7519999 68.656,57.928 C68.9599999,58.1040001 69.3360001,58.192 69.784,58.192 C70.1599999,58.192 70.5180001,58.114 70.858,57.958 C71.1979999,57.802 71.4979999,57.586 71.758,57.31 C72.0180001,57.034 72.2239999,56.704 72.376,56.32 C72.5280001,55.936 72.604,55.516 72.604,55.06 C72.604,54.604 72.5280001,54.184 72.376,53.8 C72.2239999,53.416 72.0180001,53.086 71.758,52.81 C71.4979999,52.534 71.1979999,52.318 70.858,52.162 C70.5180001,52.006 70.1599999,51.928 69.784,51.928 C69.3360001,51.928 68.9599999,52.0159999 68.656,52.192 C68.3520001,52.3680001 68.128,52.5799999 67.984,52.828 L67.888,52.828 L67.888,52.12 L66.412,52.12 L66.412,60.592 L67.984,60.592 Z M69.46,56.74 C69.2520001,56.74 69.0540001,56.7019999 68.866,56.626 C68.6779999,56.5500001 68.512,56.44 68.368,56.296 C68.224,56.152 68.1079999,55.9759999 68.02,55.768 C67.9320001,55.5600001 67.888,55.324 67.888,55.06 C67.888,54.796 67.9320001,54.5599999 68.02,54.352 C68.1079999,54.1440001 68.224,53.968 68.368,53.824 C68.512,53.68 68.6779999,53.5699999 68.866,53.494 C69.0540001,53.4180001 69.2520001,53.38 69.46,53.38 C69.6679999,53.38 69.8659999,53.4199999 70.054,53.5 C70.2420001,53.5800001 70.408,53.692 70.552,53.836 C70.696,53.98 70.8120001,54.1560001 70.9,54.364 C70.9879999,54.5719999 71.032,54.8040001 71.032,55.06 C71.032,55.3159999 70.9879999,55.5480001 70.9,55.756 C70.8120001,55.9639999 70.696,56.14 70.552,56.284 C70.408,56.428 70.2420001,56.5399999 70.054,56.62 C69.8659999,56.7000001 69.6679999,56.74 69.46,56.74 Z M75.184,58 L75.184,55.12 C75.184,54.88 75.2179999,54.658 75.286,54.454 C75.3540001,54.25 75.4500001,54.0720001 75.574,53.92 C75.6979999,53.7679999 75.8479999,53.65 76.024,53.566 C76.2000001,53.482 76.396,53.44 76.612,53.44 C76.78,53.44 76.9219999,53.4540001 77.038,53.482 C77.1540001,53.5099999 77.26,53.548 77.356,53.596 L77.776,52.168 C77.6719999,52.1040001 77.5459999,52.0519999 77.398,52.012 C77.2500001,51.9720001 77.0719999,51.952 76.864,51.952 C76.696,51.952 76.5259999,51.976 76.354,52.024 C76.1820001,52.072 76.0219999,52.1400001 75.874,52.228 C75.7260001,52.3159999 75.592,52.42 75.472,52.54 C75.352,52.66 75.256,52.792 75.184,52.936 L75.088,52.936 L75.088,52.12 L73.612,52.12 L73.612,58 L75.184,58 Z M79.372,51.268 C79.6519999,51.268 79.8919999,51.1699999 80.092,50.974 C80.2920001,50.7780001 80.392,50.5399999 80.392,50.26 C80.392,49.9800001 80.2920001,49.7419999 80.092,49.546 C79.8919999,49.3500001 79.6519999,49.252 79.372,49.252 C79.2360001,49.252 79.1059999,49.2780001 78.982,49.33 C78.8580001,49.3819999 78.7500001,49.4539999 78.658,49.546 C78.5659999,49.6380001 78.4939999,49.744 78.442,49.864 C78.3900001,49.984 78.364,50.116 78.364,50.26 C78.364,50.404 78.3900001,50.536 78.442,50.656 C78.4939999,50.776 78.5659999,50.8819999 78.658,50.974 C78.7500001,51.0660001 78.8580001,51.1380001 78.982,51.19 C79.1059999,51.2419999 79.2360001,51.268 79.372,51.268 Z M80.164,58 L80.164,52.12 L78.592,52.12 L78.592,58 L80.164,58 Z M85.036,58 L87.568,52.12 L85.792,52.12 L84.316,55.864 L84.232,55.864 L82.768,52.12 L80.98,52.12 L83.488,58 L85.036,58 Z M90.148,58.192 C90.556,58.192 90.8899999,58.1119999 91.15,57.952 C91.4100001,57.7920001 91.6320001,57.6000001 91.816,57.376 L91.912,57.376 L91.912,58 L93.46,58 L93.46,54.472 C93.46,53.632 93.22,52.9980001 92.74,52.57 C92.26,52.1419999 91.564,51.928 90.652,51.928 C89.572,51.928 88.72,52.3200001 88.096,53.104 L89.236,53.884 C89.6119999,53.428 90.0720001,53.2 90.616,53.2 C90.9840001,53.2 91.2919999,53.302 91.54,53.506 C91.7880001,53.71 91.912,53.968 91.912,54.28 L91.912,54.46 C91.7520001,54.3960001 91.5480001,54.334 91.3,54.274 C91.0519999,54.214 90.736,54.184 90.352,54.184 C90.0079999,54.184 89.6899999,54.2299999 89.398,54.322 C89.1060001,54.4140001 88.852,54.5479999 88.636,54.724 C88.42,54.9000001 88.252,55.1100001 88.132,55.354 C88.012,55.5979999 87.952,55.8720001 87.952,56.176 C87.952,56.4720001 88.0080001,56.7439999 88.12,56.992 C88.2319999,57.2400001 88.3879999,57.4519999 88.588,57.628 C88.7880001,57.8040001 89.0220001,57.9420001 89.29,58.042 C89.5579999,58.1419999 89.8440001,58.192 90.148,58.192 Z M90.496,56.968 C90.2400001,56.968 90.0139999,56.896 89.818,56.752 C89.6220001,56.608 89.524,56.416 89.524,56.176 C89.524,55.936 89.626,55.7340001 89.83,55.57 C90.034,55.4059999 90.3240001,55.324 90.7,55.324 C90.9319999,55.324 91.1460001,55.3500001 91.342,55.402 C91.5379999,55.4539999 91.7280001,55.5240001 91.912,55.612 C91.912,55.7880001 91.8780001,55.9579999 91.81,56.122 C91.7419999,56.2860001 91.6459999,56.4300001 91.522,56.554 C91.3980001,56.6779999 91.2480001,56.7780001 91.072,56.854 C90.8959999,56.9299999 90.7039999,56.968 90.496,56.968 Z M97.492,58.192 C98.1799999,58.192 98.7540001,58.0339999 99.214,57.718 C99.6739999,57.4020001 100.032,56.9959999 100.288,56.5 L98.848,55.876 C98.7120001,56.1559999 98.53,56.3700001 98.302,56.518 C98.074,56.6659999 97.7959999,56.74 97.468,56.74 C97.2600001,56.74 97.0639999,56.7000001 96.88,56.62 C96.6960001,56.5399999 96.5340001,56.428 96.394,56.284 C96.2539999,56.14 96.1440001,55.9639999 96.064,55.756 C95.9839999,55.5480001 95.944,55.3159999 95.944,55.06 C95.944,54.8040001 95.9839999,54.5719999 96.064,54.364 C96.1440001,54.1560001 96.2539999,53.98 96.394,53.836 C96.5340001,53.692 96.6960001,53.5800001 96.88,53.5 C97.0639999,53.4199999 97.2600001,53.38 97.468,53.38 C97.7880001,53.38 98.0539999,53.4499999 98.266,53.59 C98.4780001,53.7300001 98.6520001,53.9359999 98.788,54.208 L100.228,53.608 C100.012,53.1120001 99.6720001,52.708 99.208,52.396 C98.7439999,52.084 98.1720001,51.928 97.492,51.928 C97.036,51.928 96.6180001,52.006 96.238,52.162 C95.8579999,52.318 95.53,52.534 95.254,52.81 C94.978,53.086 94.762,53.416 94.606,53.8 C94.45,54.184 94.372,54.604 94.372,55.06 C94.372,55.516 94.45,55.9339999 94.606,56.314 C94.762,56.6940001 94.978,57.0240001 95.254,57.304 C95.53,57.5839999 95.8579999,57.802 96.238,57.958 C96.6180001,58.114 97.036,58.192 97.492,58.192 Z M103.48,60.592 L107.164,52.12 L105.412,52.12 L103.984,55.684 L103.9,55.684 L102.412,52.12 L100.624,52.12 L103.096,57.712 L101.788,60.592 L103.48,60.592 Z" id="Controlyourprivacy" fill="#000000" fill-rule="nonzero"></path>
                    </g>
                </g>
            </g>
        </g>
    </g>
</svg>