<?xml version="1.0" encoding="UTF-8"?>
<svg width="175px" height="175px" viewBox="0 0 175 175" version="1.1" xmlns="http://www.w3.org/2000/svg" xmlns:xlink="http://www.w3.org/1999/xlink">
    <!-- Generator: Sketch 64 (93537) - https://sketch.com -->
    <title>Slice</title>
    <desc>Created with Sketch.</desc>
    <defs>
        <linearGradient x1="5.709%" y1="-3.39574348%" x2="101.747%" y2="98.3846256%" id="linearGradient-1">
            <stop stop-color="#F0F0F0" offset="0%"></stop>
            <stop stop-color="#F2EDFD" offset="100%"></stop>
        </linearGradient>
        <path d="M34.8293125,1.28603541 C56.7215995,7.83341482 73.1981078,9.5177364 84.2588379,6.33900008 C100.849932,1.57089564 127.313758,2.00823265 140.631767,20.9272473 C153.949774,39.846262 169.550978,64.7318792 152.544913,89.3005571 C135.538849,113.869235 111.675867,122.84497 102.596719,106.38158 C93.5175703,89.9181912 68.9681851,100.358707 59.3582638,110.343236 C49.7483426,120.327765 -7.242482,109.524791 1.39552824,79.1710462 C10.0335385,48.8173019 -4.90160888,40.9681411 1.77607306,19.0198571 C6.22786102,4.38766765 17.2456075,-1.52360623 34.8293125,1.28603541 Z" id="path-2"></path>
        <linearGradient x1="102.214941%" y1="44.6338785%" x2="0%" y2="60.1396487%" id="linearGradient-4">
            <stop stop-color="#FD7082" offset="0%"></stop>
            <stop stop-color="#FDB6CB" offset="100%"></stop>
        </linearGradient>
        <path d="M34.8293125,0.678892557 C56.7215995,7.22627196 73.1981078,8.91059354 84.2588379,5.73185722 C100.849932,0.963752784 127.313758,1.4010898 140.631767,20.3201045 C153.949774,39.2391192 169.550978,64.1247363 152.544913,88.6934143 C135.538849,113.262092 111.675867,122.237827 102.596719,105.774438 C93.5175703,89.3110484 68.9681851,99.7515645 59.3582638,109.736093 C49.7483426,119.720622 -7.242482,108.917648 1.39552824,78.5639033 C10.0335385,48.210159 -4.90160888,40.3609983 1.77607306,18.4127142 C6.22786102,3.78052479 17.2456075,-2.13074909 34.8293125,0.678892557 Z" id="path-5"></path>
        <linearGradient x1="88.0688132%" y1="11.4011354%" x2="0.138499442%" y2="87.9111069%" id="linearGradient-7">
            <stop stop-color="#A6AFED" offset="0%"></stop>
            <stop stop-color="#454BB5" offset="100%"></stop>
        </linearGradient>
        <linearGradient x1="102.214941%" y1="45.6894737%" x2="0%" y2="58.1450304%" id="linearGradient-8">
            <stop stop-color="#FDB6CB" offset="0%"></stop>
            <stop stop-color="#FD7082" offset="100%"></stop>
        </linearGradient>
        <path d="M22.4305408,8.16269841 L134.192268,8.16269841 C135.646063,8.16269841 136.824597,9.341232 136.824597,10.7950268 L136.824597,87.6624836 L136.824597,87.6624836 L19.7982124,87.6624836 L19.7982124,10.7950268 C19.7982124,9.341232 20.976746,8.16269841 22.4305408,8.16269841 Z" id="path-9"></path>
        <filter x="-16.2%" y="-21.4%" width="132.5%" height="147.8%" filterUnits="objectBoundingBox" id="filter-10">
            <feOffset dx="0" dy="2" in="SourceAlpha" result="shadowOffsetOuter1"></feOffset>
            <feGaussianBlur stdDeviation="6" in="shadowOffsetOuter1" result="shadowBlurOuter1"></feGaussianBlur>
            <feColorMatrix values="0 0 0 0 0.129064326   0 0 0 0 0.0247213418   0 0 0 0 0.310377038  0 0 0 0.235822771 0" type="matrix" in="shadowBlurOuter1"></feColorMatrix>
        </filter>
        <path d="M13.8536093,87.6624836 L142.442709,87.6624836 C144.490177,87.6624836 146.149977,89.3222839 146.149977,91.3697514 L146.149977,93.9955173 L146.149977,93.9955173 L10.1463415,93.9955173 L10.1463415,91.3697514 C10.1463415,89.3222839 11.8061418,87.6624836 13.8536093,87.6624836 Z" id="path-11"></path>
        <filter x="-14.0%" y="-268.4%" width="127.9%" height="700.0%" filterUnits="objectBoundingBox" id="filter-12">
            <feOffset dx="0" dy="2" in="SourceAlpha" result="shadowOffsetOuter1"></feOffset>
            <feGaussianBlur stdDeviation="6" in="shadowOffsetOuter1" result="shadowBlurOuter1"></feGaussianBlur>
            <feColorMatrix values="0 0 0 0 0.129064326   0 0 0 0 0.0247213418   0 0 0 0 0.310377038  0 0 0 0.235822771 0" type="matrix" in="shadowBlurOuter1"></feColorMatrix>
        </filter>
        <linearGradient x1="83.7049789%" y1="50%" x2="11.9844532%" y2="100%" id="linearGradient-13">
            <stop stop-color="#FFD476" offset="0%"></stop>
            <stop stop-color="#F3BC5F" offset="100%"></stop>
        </linearGradient>
        <path d="M21.0846496,0.123918846 L40.7745471,11.4833885 C41.0624397,11.6494791 41.2398121,11.9565824 41.2398121,12.28895 L41.2398121,35.0066849 C41.2398121,35.3390526 41.0624397,35.6461559 40.7745471,35.8122465 L21.0846496,47.1717161 C20.7970365,47.3376454 20.4427757,47.3376454 20.1551626,47.1717161 L0.465265057,35.8122465 C0.17737246,35.6461559 -6.1322476e-15,35.3390526 0,35.0066849 L0,12.28895 C-1.16433601e-16,11.9565824 0.17737246,11.6494791 0.465265057,11.4833885 L20.1551626,0.123918846 C20.4427757,-0.0420105073 20.7970365,-0.0420105073 21.0846496,0.123918846 Z" id="path-14"></path>
        <filter x="-21.9%" y="-14.8%" width="143.9%" height="138.1%" filterUnits="objectBoundingBox" id="filter-15">
            <feMorphology radius="3.50977125" operator="dilate" in="SourceAlpha" result="shadowSpreadOuter1"></feMorphology>
            <feOffset dx="0" dy="2" in="shadowSpreadOuter1" result="shadowOffsetOuter1"></feOffset>
            <feGaussianBlur stdDeviation="1.5" in="shadowOffsetOuter1" result="shadowBlurOuter1"></feGaussianBlur>
            <feComposite in="shadowBlurOuter1" in2="SourceAlpha" operator="out" result="shadowBlurOuter1"></feComposite>
            <feColorMatrix values="0 0 0 0 0.0666666667   0 0 0 0 0.180392157   0 0 0 0 0.431372549  0 0 0 0.2 0" type="matrix" in="shadowBlurOuter1"></feColorMatrix>
        </filter>
    </defs>
    <g id="основное" stroke="none" stroke-width="1" fill="none" fill-rule="evenodd">
        <g id="how-it-works_wellneess_seekers" transform="translate(-633.000000, -1000.000000)">
            <g id="2" transform="translate(633.000000, 1000.000000)">
                <g transform="translate(4.000000, 27.000000)" id="3-copy">
                    <g>
                        <g id="Group-45">
                            <g id="Group-44">
                                <g id="brave-rewards">
                                    <g id="Group" transform="translate(0.000000, 2.472222)">
                                        <g id="rewards-a-link" transform="translate(0.000000, 1.000000)" fill="url(#linearGradient-1)" fill-rule="nonzero">
                                            <path d="M34.8293125,0.678892557 C56.7215995,7.22627196 73.1981078,8.91059354 84.2588379,5.73185722 C100.849932,0.963752784 127.313758,1.4010898 140.631767,20.3201045 C153.949774,39.2391192 169.550978,64.1247363 152.544913,88.6934143 C135.538849,113.262092 111.675867,122.237827 102.596719,105.774438 C93.5175703,89.3110484 68.9681851,99.7515645 59.3582638,109.736093 C49.7483426,119.720622 -7.242482,108.917648 1.39552824,78.5639033 C10.0335385,48.210159 -4.90160888,40.3609983 1.77607306,18.4127142 C6.22786102,3.78052479 17.2456075,-2.13074909 34.8293125,0.678892557 Z" id="rewards-a"></path>
                                        </g>
                                        <g id="Clipped" transform="translate(0.000000, 0.392857)">
                                            <mask id="mask-3" fill="white">
                                                <use xlink:href="#path-2"></use>
                                            </mask>
                                            <g id="rewards-a"></g>
                                            <g id="Group" mask="url(#mask-3)">
                                                <g transform="translate(-20.634146, 22.928571)" id="rewards-e-link">
                                                    <g transform="translate(0.000000, 0.392857)">
                                                        <path d="M0,6.73798142 C0,3.35201281 2.7445721,0.607142857 6.11991571,0.607142857 L29.4216039,0.607142857 C32.8015399,0.607142857 35.5415196,3.35854328 35.5415196,6.73798142 L35.5415196,10.4815533 C35.5415196,13.867522 32.7969475,16.6123922 29.4216039,16.6123922 L6.11991571,16.6123922 C2.73997971,16.6123922 0,13.8609915 0,10.4815533 L0,6.73798142 Z" id="rewards-e" fill="url(#linearGradient-4)" fill-rule="nonzero"></path>
                                                    </g>
                                                </g>
                                            </g>
                                        </g>
                                        <g id="Clipped" transform="translate(0.000000, 1.000000)">
                                            <mask id="mask-6" fill="white">
                                                <use xlink:href="#path-5"></use>
                                            </mask>
                                            <g id="rewards-a"></g>
                                        </g>
                                        <g id="rewards-k-link" transform="translate(0.000000, 1.000000)" fill="#ECE9F6" fill-rule="nonzero" opacity="0.200000003">
                                            <path d="M34.8293125,0.678892557 C56.7215995,7.22627196 73.1981078,8.91059354 84.2588379,5.73185722 C100.849932,0.963752784 127.313758,1.4010898 140.631767,20.3201045 C153.949774,39.2391192 169.550978,64.1247363 152.544913,88.6934143 C135.538849,113.262092 111.675867,122.237827 102.596719,105.774438 C93.5175703,89.3110484 68.9681851,99.7515645 59.3582638,109.736093 C49.7483426,119.720622 -7.242482,108.917648 1.39552824,78.5639033 C10.0335385,48.210159 -4.90160888,40.3609983 1.77607306,18.4127142 C6.22786102,3.78052479 17.2456075,-2.13074909 34.8293125,0.678892557 Z" id="rewards-k"></path>
                                        </g>
                                    </g>
                                    <g id="Group" transform="translate(121.756098, 75.000000)" fill="#FFFFFF" fill-rule="nonzero">
                                        <g id="rewards-n-link" transform="translate(0.000000, 0.392857)">
                                            <ellipse id="rewards-n" cx="1.92546341" cy="-75.4650714" rx="1.92546341" ry="1.92778571"></ellipse>
                                        </g>
                                    </g>
                                    <g id="Group" transform="translate(6.243902, 74.611111)" fill="url(#linearGradient-7)" fill-rule="nonzero">
                                        <g id="rewards-p-link">
                                            <ellipse id="rewards-p" cx="3.48643902" cy="3.49127778" rx="3.48643902" ry="3.49127778"></ellipse>
                                        </g>
                                    </g>
                                    <g id="Group" transform="translate(137.365854, 44.123016)" fill="url(#linearGradient-7)" fill-rule="nonzero">
                                        <g id="rewards-r-link">
                                            <ellipse id="rewards-r" cx="3.48643902" cy="3.49127778" rx="3.48643902" ry="3.49127778"></ellipse>
                                        </g>
                                    </g>
                                    <g id="Group" transform="translate(32.780488, 0.345238)" fill-rule="nonzero">
                                        <rect id="community-o" fill="url(#linearGradient-8)" x="113.219512" y="33.6547619" width="20.079169" height="8.10414286" rx="2.65171548"></rect>
                                        <g opacity="0.339" fill="#FFFFFF" id="Rectangle">
                                            <rect x="7.80487805" y="12.5079365" width="6.94243902" height="14.8445754" rx="2.63804878"></rect>
                                            <rect x="0" y="0" width="29.5765854" height="4.68187698" rx="2.33756098"></rect>
                                            <rect x="67.902439" y="12.5079365" width="6.94243902" height="14.8445754" rx="2.63804878"></rect>
                                            <rect x="18.7317073" y="12.1209722" width="6.94243902" height="14.8445754" rx="2.63804878"></rect>
                                            <rect x="78.8292683" y="12.5079365" width="6.94243902" height="14.8445754" rx="2.63804878"></rect>
                                        </g>
                                    </g>
                                </g>
                                <g id="2" transform="translate(110.048780, 73.829365)"></g>
                            </g>
                            <g id="Rectangle-12" fill-rule="nonzero">
                                <use fill="black" fill-opacity="1" filter="url(#filter-10)" xlink:href="#path-9"></use>
                                <use fill="#FFFFFF" xlink:href="#path-9"></use>
                            </g>
                            <path d="M26.7548856,13 L130.435977,13 C131.405173,13 132.190863,13.7856891 132.190863,14.7548856 L132.190863,81.0769172 C132.190863,82.0461138 131.405173,82.8318028 130.435977,82.8318028 L26.7548856,82.8318028 C25.7856891,82.8318028 25,82.0461138 25,81.0769172 L25,14.7548856 C25,13.7856891 25.7856891,13 26.7548856,13 Z" id="Rectangle-12-Copy-2"></path>
                            <g id="Rectangle-12-Copy" fill-rule="nonzero" transform="translate(78.148159, 90.829000) scale(1, -1) translate(-78.148159, -90.829000) ">
                                <use fill="black" fill-opacity="1" filter="url(#filter-12)" xlink:href="#path-11"></use>
                                <use fill="#FFFFFF" xlink:href="#path-11"></use>
                            </g>
                            <rect id="Rectangle-Copy-34" stroke="#F2EEF9" stroke-width="1.30625574" fill="#F2EEF9" fill-rule="nonzero" x="56.9756098" y="30.0515873" width="10.1463415" height="2.3452381" rx="1.17261905"></rect>
                            <rect id="Rectangle-Copy-35" stroke="#F2EEF9" stroke-width="1.30625574" fill="#F2EEF9" fill-rule="nonzero" x="70.2439024" y="30.0515873" width="5.46341463" height="2.3452381" rx="1.17261905"></rect>
                            <rect id="Rectangle-Copy-32" stroke="#F2EEF9" stroke-width="1.30625574" fill="#F2EEF9" fill-rule="nonzero" x="84" y="29" width="39.804878" height="3.90873016" rx="1.30625574"></rect>
                            <g id="Group-61" transform="translate(24.146341, 12.162698)">
                                <g id="Group-48" transform="translate(0.000000, 0.000000)">
                                    <path d="M2.16127225,0.749775302 L105.842364,0.749775302 C106.81156,0.749775302 107.597249,1.53546436 107.597249,2.50466093 L107.597249,7.59409603 C107.597249,8.5632926 106.81156,9.34898165 105.842364,9.34898165 L2.16127225,9.34898165 C1.19207569,9.34898165 0.406386629,8.5632926 0.406386629,7.59409603 L0.406386629,2.50466093 C0.406386629,1.53546436 1.19207569,0.749775302 2.16127225,0.749775302 Z" id="Rectangle-12-Copy-4" fill="#8168EF" fill-rule="nonzero"></path>
                                    <g id="Group-31" opacity="0.230515253" transform="translate(41.414634, 21.015873)" fill="#FFFFFF">
                                        <ellipse id="Oval-5" cx="13.6638716" cy="7.40542351" rx="7.23381439" ry="7.40542351"></ellipse>
                                        <path d="M26.5239861,28.7988692 C25.7824523,21.8126721 20.0874181,16.4564967 13.261993,16.4564967 C6.43656803,16.4564967 0.741533774,21.8126721 0,28.7988692 L26.5239861,28.7988692 Z" id="Combined-Shape" fill-rule="nonzero"></path>
                                    </g>
                                    <path d="M47.1407274,75.4997852 L62.444346,75.4997852 C63.8954937,75.4997852 65.0718813,76.6761728 65.0718813,78.1273205 L65.0718813,78.1273205 L65.0718813,78.1273205 L44.5131922,78.1273205 C44.5131922,76.6761728 45.6895798,75.4997852 47.1407274,75.4997852 Z" id="Rectangle-12-Copy-3" fill="#FFFFFF" opacity="0.8" transform="translate(54.792537, 76.813553) rotate(-180.000000) translate(-54.792537, -76.813553) "></path>
                                </g>
                            </g>
                            <g id="Group-14" transform="translate(110.174822, 73.829365)">
                                <g id="Polygon-Copy">
                                    <use fill="black" fill-opacity="1" filter="url(#filter-15)" xlink:href="#path-14"></use>
                                    <path stroke="#FFFFFF" stroke-width="3.50977125" d="M21.9616003,-1.39614068 C21.1249835,-1.87880052 20.0930312,-1.875144 19.2593741,-1.38517113 L-1.77458597,11.3102749 L-1.2696892,36.8373077 L19.2782118,48.6917756 C20.1148286,49.1744354 21.1467809,49.1707789 21.9804381,48.6808061 L43.0143981,35.98536 L42.5095014,10.4583272 L21.9616003,-1.39614068 Z" fill="url(#linearGradient-13)" fill-rule="evenodd"></path>
                                </g>
                                <rect id="Rectangle" fill="#FFFFFF" x="20.1666414" y="16.4166667" width="1" height="14.8531746"></rect>
                                <polygon id="Rectangle-Copy-33" fill="#FFFFFF" transform="translate(20.556885, 23.843254) rotate(-90.000000) translate(-20.556885, -23.843254) " points="20.1660123 16.4286198 20.9477583 16.4286198 20.9477583 31.2578881 20.1660123 31.2578881"></polygon>
                            </g>
                        </g>
                        <path d="M48.97,50.192 C49.6819999,50.192 50.326,50.0579999 50.902,49.79 C51.478,49.5220001 51.9780001,49.1320001 52.402,48.62 L51.25,47.528 C50.962,47.888 50.632,48.1660001 50.26,48.362 C49.888,48.5579999 49.462,48.656 48.982,48.656 C48.5820001,48.656 48.2059999,48.5860001 47.854,48.446 C47.5020001,48.3059999 47.1960001,48.1079999 46.936,47.852 C46.6759999,47.5960001 46.47,47.2859999 46.318,46.922 C46.1659999,46.5580001 46.09,46.1519999 46.09,45.704 C46.09,45.2560001 46.1659999,44.8499999 46.318,44.486 C46.47,44.1220001 46.6759999,43.8119999 46.936,43.556 C47.1960001,43.3000001 47.5020001,43.1020001 47.854,42.962 C48.2059999,42.8219999 48.5820001,42.752 48.982,42.752 C49.438,42.752 49.8319999,42.8399999 50.164,43.016 C50.4960001,43.1920001 50.7900001,43.4279999 51.046,43.724 L52.186,42.62 C51.778,42.164 51.3120001,41.816 50.788,41.576 C50.2639999,41.336 49.6579999,41.216 48.97,41.216 C48.3300001,41.216 47.7360001,41.3320001 47.188,41.564 C46.6399999,41.7959999 46.1659999,42.1120001 45.766,42.512 C45.3660001,42.9119999 45.0499999,43.3859999 44.818,43.934 C44.5860001,44.4820001 44.47,45.0719999 44.47,45.704 C44.47,46.3360001 44.5860001,46.9259999 44.818,47.474 C45.0499999,48.0220001 45.3660001,48.4960001 45.766,48.896 C46.1659999,49.2959999 46.6399999,49.6120001 47.188,49.844 C47.7360001,50.0759999 48.3300001,50.192 48.97,50.192 Z M55.078,50 L55.078,47.132 C55.078,46.892 55.108,46.6660001 55.168,46.454 C55.228,46.2419999 55.3159999,46.0559999 55.432,45.896 C55.5480001,45.7360001 55.69,45.6100001 55.858,45.518 C56.026,45.4259999 56.218,45.38 56.434,45.38 C56.7780001,45.38 57.046,45.4859999 57.238,45.698 C57.43,45.9100001 57.526,46.22 57.526,46.628 L57.526,50 L59.098,50 L59.098,46.436 C59.098,45.6599999 58.9159999,45.0479999 58.552,44.6 C58.1880001,44.1520001 57.6259999,43.928 56.866,43.928 C56.4739999,43.928 56.1199999,44.018 55.804,44.198 C55.4880001,44.378 55.246,44.6080001 55.078,44.888 L54.982,44.888 L55.078,43.82 L55.078,41.408 L53.506,41.408 L53.506,50 L55.078,50 Z M63.178,50.192 C63.634,50.192 64.0519999,50.114 64.432,49.958 C64.8120001,49.802 65.14,49.586 65.416,49.31 C65.692,49.034 65.908,48.704 66.064,48.32 C66.22,47.936 66.298,47.516 66.298,47.06 C66.298,46.604 66.22,46.184 66.064,45.8 C65.908,45.416 65.692,45.086 65.416,44.81 C65.14,44.534 64.8120001,44.318 64.432,44.162 C64.0519999,44.006 63.634,43.928 63.178,43.928 C62.722,43.928 62.3040001,44.006 61.924,44.162 C61.5439999,44.318 61.216,44.534 60.94,44.81 C60.664,45.086 60.448,45.416 60.292,45.8 C60.136,46.184 60.058,46.604 60.058,47.06 C60.058,47.516 60.136,47.936 60.292,48.32 C60.448,48.704 60.664,49.034 60.94,49.31 C61.216,49.586 61.5439999,49.802 61.924,49.958 C62.3040001,50.114 62.722,50.192 63.178,50.192 Z M63.178,48.74 C62.9700001,48.74 62.7739999,48.7019999 62.59,48.626 C62.4060001,48.5500001 62.242,48.44 62.098,48.296 C61.954,48.152 61.84,47.9759999 61.756,47.768 C61.672,47.5600001 61.63,47.324 61.63,47.06 C61.63,46.796 61.672,46.5599999 61.756,46.352 C61.84,46.1440001 61.954,45.968 62.098,45.824 C62.242,45.68 62.4060001,45.5699999 62.59,45.494 C62.7739999,45.4180001 62.9700001,45.38 63.178,45.38 C63.3780001,45.38 63.5719999,45.4180001 63.76,45.494 C63.9480001,45.5699999 64.114,45.68 64.258,45.824 C64.402,45.968 64.516,46.1440001 64.6,46.352 C64.684,46.5599999 64.726,46.796 64.726,47.06 C64.726,47.324 64.684,47.5600001 64.6,47.768 C64.516,47.9759999 64.402,48.152 64.258,48.296 C64.114,48.44 63.9480001,48.5500001 63.76,48.626 C63.5719999,48.7019999 63.3780001,48.74 63.178,48.74 Z M70.09,50.192 C70.546,50.192 70.9639999,50.114 71.344,49.958 C71.7240001,49.802 72.052,49.586 72.328,49.31 C72.604,49.034 72.82,48.704 72.976,48.32 C73.132,47.936 73.21,47.516 73.21,47.06 C73.21,46.604 73.132,46.184 72.976,45.8 C72.82,45.416 72.604,45.086 72.328,44.81 C72.052,44.534 71.7240001,44.318 71.344,44.162 C70.9639999,44.006 70.546,43.928 70.09,43.928 C69.634,43.928 69.2160001,44.006 68.836,44.162 C68.4559999,44.318 68.128,44.534 67.852,44.81 C67.576,45.086 67.36,45.416 67.204,45.8 C67.048,46.184 66.97,46.604 66.97,47.06 C66.97,47.516 67.048,47.936 67.204,48.32 C67.36,48.704 67.576,49.034 67.852,49.31 C68.128,49.586 68.4559999,49.802 68.836,49.958 C69.2160001,50.114 69.634,50.192 70.09,50.192 Z M70.09,48.74 C69.8820001,48.74 69.6859999,48.7019999 69.502,48.626 C69.3180001,48.5500001 69.154,48.44 69.01,48.296 C68.866,48.152 68.752,47.9759999 68.668,47.768 C68.584,47.5600001 68.542,47.324 68.542,47.06 C68.542,46.796 68.584,46.5599999 68.668,46.352 C68.752,46.1440001 68.866,45.968 69.01,45.824 C69.154,45.68 69.3180001,45.5699999 69.502,45.494 C69.6859999,45.4180001 69.8820001,45.38 70.09,45.38 C70.2900001,45.38 70.4839999,45.4180001 70.672,45.494 C70.8600001,45.5699999 71.026,45.68 71.17,45.824 C71.314,45.968 71.428,46.1440001 71.512,46.352 C71.596,46.5599999 71.638,46.796 71.638,47.06 C71.638,47.324 71.596,47.5600001 71.512,47.768 C71.428,47.9759999 71.314,48.152 71.17,48.296 C71.026,48.44 70.8600001,48.5500001 70.672,48.626 C70.4839999,48.7019999 70.2900001,48.74 70.09,48.74 Z M76.546,50.192 C76.9219999,50.192 77.2639999,50.1400001 77.572,50.036 C77.8800001,49.9319999 78.1440001,49.79 78.364,49.61 C78.5839999,49.43 78.754,49.2239999 78.874,48.992 C78.994,48.7600001 79.054,48.5159999 79.054,48.26 C79.054,47.828 78.9079999,47.4539999 78.616,47.138 C78.3240001,46.8220001 77.878,46.592 77.278,46.448 L76.378,46.232 C76.138,46.1680001 75.9480001,46.0960001 75.808,46.016 C75.6679999,45.9359999 75.598,45.8279999 75.598,45.692 C75.598,45.548 75.682,45.4300001 75.85,45.338 C76.018,45.2459999 76.2139999,45.2 76.438,45.2 C76.654,45.2 76.87,45.2519999 77.086,45.356 C77.302,45.4600001 77.4660001,45.6280001 77.578,45.86 L78.934,45.308 C78.7260001,44.828 78.4020001,44.4779999 77.962,44.258 C77.5219999,44.0380001 77.0220001,43.928 76.462,43.928 C76.126,43.928 75.8119999,43.97 75.52,44.054 C75.2280001,44.138 74.974,44.258 74.758,44.414 C74.542,44.57 74.3719999,44.7599999 74.248,44.984 C74.1240001,45.2080001 74.062,45.464 74.062,45.752 C74.062,46.0079999 74.1139999,46.232 74.218,46.424 C74.3220001,46.616 74.4540001,46.7800001 74.614,46.916 C74.7739999,47.0519999 74.9520001,47.1640001 75.148,47.252 C75.3439999,47.3399999 75.5340001,47.4040001 75.718,47.444 L76.546,47.624 C76.8900001,47.7040001 77.1319999,47.7940001 77.272,47.894 C77.4120001,47.9939999 77.482,48.1240001 77.482,48.284 C77.482,48.428 77.398,48.5519999 77.23,48.656 C77.062,48.7600001 76.834,48.812 76.546,48.812 C76.2660001,48.812 76.012,48.7379999 75.784,48.59 C75.556,48.4420001 75.3739999,48.2159999 75.238,47.912 L73.834,48.512 C73.9140001,48.7199999 74.0299999,48.926 74.182,49.13 C74.334,49.334 74.5200001,49.514 74.74,49.67 C74.9599999,49.826 75.22,49.952 75.52,50.048 C75.82,50.144 76.162,50.192 76.546,50.192 Z M82.798,50.192 C83.4619999,50.192 84.0240001,50.0440001 84.484,49.748 C84.9439999,49.4519999 85.3099999,49.064 85.582,48.584 L84.274,47.936 C84.1380001,48.1840001 83.9520001,48.3899999 83.716,48.554 C83.4799999,48.7180001 83.182,48.8 82.822,48.8 C82.6380001,48.8 82.4580001,48.7739999 82.282,48.722 C82.1059999,48.6700001 81.9439999,48.5860001 81.796,48.47 C81.6480001,48.3539999 81.5239999,48.2099999 81.424,48.038 C81.3240001,47.8660001 81.2580001,47.66 81.226,47.42 L85.654,47.42 C85.654,47.372 85.6579999,47.3279999 85.666,47.288 C85.666,47.2480001 85.6699999,47.204 85.678,47.156 L85.678,47.012 C85.678,46.5719999 85.6140001,46.1639999 85.486,45.788 C85.3579999,45.4120001 85.1700001,45.086 84.922,44.81 C84.6739999,44.534 84.3660001,44.318 83.998,44.162 C83.6299999,44.006 83.2099999,43.928 82.738,43.928 C82.2900001,43.928 81.88,44.012 81.508,44.18 C81.136,44.348 80.8140001,44.5739999 80.542,44.858 C80.2699999,45.1420001 80.0580001,45.4739999 79.906,45.854 C79.7539999,46.2340001 79.678,46.6360001 79.678,47.06 C79.678,47.516 79.756,47.9339999 79.912,48.314 C80.068,48.6940001 80.2860001,49.0240001 80.566,49.304 C80.8459999,49.5839999 81.1759999,49.802 81.556,49.958 C81.9360001,50.114 82.3500001,50.192 82.798,50.192 Z M84.154,46.304 L81.31,46.304 C81.4140001,45.9599999 81.5940001,45.692 81.85,45.5 C82.1059999,45.308 82.402,45.212 82.738,45.212 C82.978,45.212 83.1840001,45.248 83.356,45.32 C83.5279999,45.392 83.6719999,45.4840001 83.788,45.596 C83.9040001,45.7079999 83.992,45.8279999 84.052,45.956 C84.112,46.0840001 84.1459999,46.1999999 84.154,46.304 Z M91.558,52.592 L95.242,44.12 L93.49,44.12 L92.062,47.684 L91.978,47.684 L90.49,44.12 L88.702,44.12 L91.174,49.712 L89.866,52.592 L91.558,52.592 Z M98.746,50.192 C99.202,50.192 99.6199999,50.114 100,49.958 C100.38,49.802 100.708,49.586 100.984,49.31 C101.26,49.034 101.476,48.704 101.632,48.32 C101.788,47.936 101.866,47.516 101.866,47.06 C101.866,46.604 101.788,46.184 101.632,45.8 C101.476,45.416 101.26,45.086 100.984,44.81 C100.708,44.534 100.38,44.318 100,44.162 C99.6199999,44.006 99.202,43.928 98.746,43.928 C98.29,43.928 97.8720001,44.006 97.492,44.162 C97.1119999,44.318 96.784,44.534 96.508,44.81 C96.232,45.086 96.016,45.416 95.86,45.8 C95.704,46.184 95.626,46.604 95.626,47.06 C95.626,47.516 95.704,47.936 95.86,48.32 C96.016,48.704 96.232,49.034 96.508,49.31 C96.784,49.586 97.1119999,49.802 97.492,49.958 C97.8720001,50.114 98.29,50.192 98.746,50.192 Z M98.746,48.74 C98.5380001,48.74 98.3419999,48.7019999 98.158,48.626 C97.9740001,48.5500001 97.81,48.44 97.666,48.296 C97.522,48.152 97.408,47.9759999 97.324,47.768 C97.24,47.5600001 97.198,47.324 97.198,47.06 C97.198,46.796 97.24,46.5599999 97.324,46.352 C97.408,46.1440001 97.522,45.968 97.666,45.824 C97.81,45.68 97.9740001,45.5699999 98.158,45.494 C98.3419999,45.4180001 98.5380001,45.38 98.746,45.38 C98.9460001,45.38 99.1399999,45.4180001 99.328,45.494 C99.5160001,45.5699999 99.682,45.68 99.826,45.824 C99.97,45.968 100.084,46.1440001 100.168,46.352 C100.252,46.5599999 100.294,46.796 100.294,47.06 C100.294,47.324 100.252,47.5600001 100.168,47.768 C100.084,47.9759999 99.97,48.152 99.826,48.296 C99.682,48.44 99.5160001,48.5500001 99.328,48.626 C99.1399999,48.7019999 98.9460001,48.74 98.746,48.74 Z M105.034,50.192 C105.434,50.192 105.79,50.1059999 106.102,49.934 C106.414,49.7620001 106.662,49.5280001 106.846,49.232 L106.942,49.232 L106.942,50 L108.418,50 L108.418,44.12 L106.846,44.12 L106.846,47 C106.846,47.24 106.816,47.4659999 106.756,47.678 C106.696,47.8900001 106.608,48.074 106.492,48.23 C106.376,48.386 106.236,48.5099999 106.072,48.602 C105.908,48.6940001 105.718,48.74 105.502,48.74 C105.142,48.74 104.868,48.638 104.68,48.434 C104.492,48.23 104.398,47.9159999 104.398,47.492 L104.398,44.12 L102.826,44.12 L102.826,47.684 C102.826,48.4439999 103.008,49.052 103.372,49.508 C103.736,49.964 104.29,50.192 105.034,50.192 Z M111.334,50 L111.334,47.12 C111.334,46.88 111.368,46.658 111.436,46.454 C111.504,46.25 111.6,46.0720001 111.724,45.92 C111.848,45.7679999 111.998,45.65 112.174,45.566 C112.35,45.482 112.546,45.44 112.762,45.44 C112.93,45.44 113.072,45.4540001 113.188,45.482 C113.304,45.5099999 113.41,45.548 113.506,45.596 L113.926,44.168 C113.822,44.1040001 113.696,44.0519999 113.548,44.012 C113.4,43.9720001 113.222,43.952 113.014,43.952 C112.846,43.952 112.676,43.976 112.504,44.024 C112.332,44.072 112.172,44.1400001 112.024,44.228 C111.876,44.3159999 111.742,44.42 111.622,44.54 C111.502,44.66 111.406,44.792 111.334,44.936 L111.238,44.936 L111.238,44.12 L109.762,44.12 L109.762,50 L111.334,50 Z M70.678,67.784 C71.1420001,67.784 71.5639999,67.7099999 71.944,67.562 C72.3240001,67.4140001 72.6499999,67.202 72.922,66.926 C73.1940001,66.65 73.4059999,66.314 73.558,65.918 C73.7100001,65.522 73.786,65.0759999 73.786,64.58 L73.786,59.12 L72.286,59.12 L72.286,59.756 L72.19,59.756 C72.0060001,59.5000001 71.764,59.2979999 71.464,59.15 C71.164,59.0020001 70.81,58.928 70.402,58.928 C70.0500001,58.928 69.7080001,59 69.376,59.144 C69.0439999,59.288 68.7499999,59.4940001 68.494,59.762 C68.2380001,60.0299999 68.0299999,60.3539999 67.87,60.734 C67.7100001,61.1140001 67.63,61.5359999 67.63,62 C67.63,62.4640001 67.7100001,62.8840001 67.87,63.26 C68.0299999,63.6359999 68.2380001,63.9580001 68.494,64.226 C68.7499999,64.4939999 69.0439999,64.7 69.376,64.844 C69.7080001,64.988 70.0500001,65.06 70.402,65.06 C70.81,65.06 71.164,64.9859999 71.464,64.838 C71.764,64.6900001 72.0060001,64.4879999 72.19,64.232 L72.286,64.232 L72.286,64.64 C72.286,65.192 72.142,65.6219999 71.854,65.93 C71.566,66.2380001 71.1739999,66.392 70.678,66.392 C70.366,66.392 70.0819999,66.3059999 69.826,66.134 C69.5700001,65.9620001 69.3859999,65.72 69.274,65.408 L67.774,66.008 C67.846,66.2159999 67.9620001,66.4240001 68.122,66.632 C68.2819999,66.8399999 68.482,67.0300001 68.722,67.202 C68.962,67.3739999 69.244,67.514 69.568,67.622 C69.892,67.73 70.2619999,67.784 70.678,67.784 Z M70.738,63.644 C70.546,63.644 70.3579999,63.608 70.174,63.536 C69.9900001,63.464 69.826,63.3580001 69.682,63.218 C69.538,63.0779999 69.4219999,62.906 69.334,62.702 C69.2460001,62.498 69.202,62.264 69.202,62 C69.202,61.736 69.2460001,61.502 69.334,61.298 C69.4219999,61.094 69.538,60.92 69.682,60.776 C69.826,60.632 69.9900001,60.524 70.174,60.452 C70.3579999,60.38 70.546,60.344 70.738,60.344 C70.93,60.344 71.1199999,60.38 71.308,60.452 C71.4960001,60.524 71.662,60.6299999 71.806,60.77 C71.95,60.9100001 72.0660001,61.0840001 72.154,61.292 C72.2419999,61.4999999 72.286,61.736 72.286,62 C72.286,62.264 72.2419999,62.498 72.154,62.702 C72.0660001,62.906 71.95,63.0779999 71.806,63.218 C71.662,63.3580001 71.4960001,63.464 71.308,63.536 C71.1199999,63.608 70.93,63.644 70.738,63.644 Z M77.914,65.192 C78.37,65.192 78.7879999,65.114 79.168,64.958 C79.5480001,64.802 79.876,64.586 80.152,64.31 C80.428,64.034 80.644,63.704 80.8,63.32 C80.956,62.936 81.034,62.516 81.034,62.06 C81.034,61.604 80.956,61.184 80.8,60.8 C80.644,60.416 80.428,60.086 80.152,59.81 C79.876,59.534 79.5480001,59.318 79.168,59.162 C78.7879999,59.006 78.37,58.928 77.914,58.928 C77.458,58.928 77.0400001,59.006 76.66,59.162 C76.2799999,59.318 75.952,59.534 75.676,59.81 C75.4,60.086 75.184,60.416 75.028,60.8 C74.872,61.184 74.794,61.604 74.794,62.06 C74.794,62.516 74.872,62.936 75.028,63.32 C75.184,63.704 75.4,64.034 75.676,64.31 C75.952,64.586 76.2799999,64.802 76.66,64.958 C77.0400001,65.114 77.458,65.192 77.914,65.192 Z M77.914,63.74 C77.7060001,63.74 77.5099999,63.7019999 77.326,63.626 C77.1420001,63.5500001 76.978,63.44 76.834,63.296 C76.69,63.152 76.576,62.9759999 76.492,62.768 C76.408,62.5600001 76.366,62.324 76.366,62.06 C76.366,61.796 76.408,61.5599999 76.492,61.352 C76.576,61.1440001 76.69,60.968 76.834,60.824 C76.978,60.68 77.1420001,60.5699999 77.326,60.494 C77.5099999,60.4180001 77.7060001,60.38 77.914,60.38 C78.1140001,60.38 78.3079999,60.4180001 78.496,60.494 C78.6840001,60.5699999 78.85,60.68 78.994,60.824 C79.138,60.968 79.252,61.1440001 79.336,61.352 C79.42,61.5599999 79.462,61.796 79.462,62.06 C79.462,62.324 79.42,62.5600001 79.336,62.768 C79.252,62.9759999 79.138,63.152 78.994,63.296 C78.85,63.44 78.6840001,63.5500001 78.496,63.626 C78.3079999,63.7019999 78.1140001,63.74 77.914,63.74 Z M83.902,65.192 C84.31,65.192 84.6439999,65.1119999 84.904,64.952 C85.1640001,64.7920001 85.3860001,64.6000001 85.57,64.376 L85.666,64.376 L85.666,65 L87.214,65 L87.214,61.472 C87.214,60.632 86.974,59.9980001 86.494,59.57 C86.014,59.1419999 85.318,58.928 84.406,58.928 C83.326,58.928 82.474,59.3200001 81.85,60.104 L82.99,60.884 C83.3659999,60.428 83.8260001,60.2 84.37,60.2 C84.7380001,60.2 85.0459999,60.302 85.294,60.506 C85.5420001,60.71 85.666,60.968 85.666,61.28 L85.666,61.46 C85.5060001,61.3960001 85.3020001,61.334 85.054,61.274 C84.8059999,61.214 84.49,61.184 84.106,61.184 C83.7619999,61.184 83.4439999,61.2299999 83.152,61.322 C82.8600001,61.4140001 82.606,61.5479999 82.39,61.724 C82.174,61.9000001 82.006,62.1100001 81.886,62.354 C81.766,62.5979999 81.706,62.8720001 81.706,63.176 C81.706,63.4720001 81.7620001,63.7439999 81.874,63.992 C81.9859999,64.2400001 82.1419999,64.4519999 82.342,64.628 C82.5420001,64.8040001 82.7760001,64.9420001 83.044,65.042 C83.3119999,65.1419999 83.5980001,65.192 83.902,65.192 Z M84.25,63.968 C83.9940001,63.968 83.7679999,63.896 83.572,63.752 C83.3760001,63.608 83.278,63.416 83.278,63.176 C83.278,62.936 83.38,62.7340001 83.584,62.57 C83.788,62.4059999 84.0780001,62.324 84.454,62.324 C84.6859999,62.324 84.9000001,62.3500001 85.096,62.402 C85.2919999,62.4539999 85.4820001,62.5240001 85.666,62.612 C85.666,62.7880001 85.6320001,62.9579999 85.564,63.122 C85.4959999,63.2860001 85.3999999,63.4300001 85.276,63.554 C85.1520001,63.6779999 85.0020001,63.7780001 84.826,63.854 C84.6499999,63.9299999 84.4579999,63.968 84.25,63.968 Z M90.034,65 L90.034,56.408 L88.462,56.408 L88.462,65 L90.034,65 Z" id="Chooseyourgoal" fill="#000000" fill-rule="nonzero"></path>
                    </g>
                </g>
            </g>
        </g>
    </g>
</svg>