<svg version="1.1" id="Layer_1" xmlns="http://www.w3.org/2000/svg" xmlns:xlink="http://www.w3.org/1999/xlink" x="0px" y="0px"
	 width="100%" viewBox="0 0 1024 576" enable-background="new 0 0 1024 576" xml:space="preserve">
<path fill="#000000" opacity="1.000000" stroke="none" 
	d="
M128.531418,0.999999 
	C132.096634,1.566453 135.196304,2.116799 138.289291,2.702532 
	C146.018341,4.166217 153.443481,6.014783 159.583771,11.665962 
	C162.132553,14.011718 166.135513,14.739690 169.408875,16.342846 
	C180.067719,21.563122 188.964523,28.462696 192.142410,40.684433 
	C192.628052,42.552158 194.034973,43.788631 195.224594,45.168797 
	C210.203857,62.547520 214.480209,83.002838 212.783768,105.294151 
	C211.527252,121.804680 207.555237,137.626495 195.988785,149.710892 
	C188.708649,157.317001 184.469009,166.411179 179.003204,174.984009 
	C178.359421,175.993759 181.109894,177.225967 182.529785,177.950989 
	C197.955933,185.828094 213.329834,193.812500 230.257736,198.189102 
	C235.951584,199.661194 241.716400,200.447739 247.536575,200.557159 
	C256.563507,200.726837 264.398926,197.963547 270.917175,191.225494 
	C276.340027,185.619812 283.256775,183.223480 290.996155,185.862305 
	C294.379700,187.015945 296.007141,184.724487 298.020294,183.297760 
	C326.026917,163.449158 354.124786,143.736267 383.045624,125.227974 
	C425.502258,98.057312 469.327759,73.472183 516.257751,54.753010 
	C551.038940,40.879700 586.799316,30.422136 624.037537,26.080027 
	C663.174622,21.516499 702.211304,21.932634 740.313721,33.693527 
	C762.484863,40.536999 781.596313,52.927689 798.866638,68.213997 
	C810.458130,78.473839 820.968384,89.969727 833.878418,98.718193 
	C834.715393,99.285385 835.474487,99.963478 835.156189,101.593117 
	C833.019409,103.284042 830.993530,101.625870 829.064636,100.711967 
	C817.576538,95.268997 808.552429,86.550072 799.374451,78.075012 
	C781.498901,61.568531 761.475220,48.732433 737.943176,41.863434 
	C716.646851,35.647038 694.816284,33.819958 672.736755,34.110130 
	C610.545654,34.927471 552.121094,51.192406 495.984924,77.008255 
	C443.701721,101.052177 395.260315,131.560349 348.272369,164.518265 
	C333.406616,174.945251 318.733337,185.646774 303.982605,196.237442 
	C301.965881,197.685410 300.010956,199.219421 297.760010,200.914993 
	C302.125061,208.092453 302.176880,215.071732 296.284180,221.109253 
	C289.546661,228.012360 281.828003,232.822235 271.411987,230.852997 
	C264.092102,229.469086 257.453461,229.851120 250.905853,235.067551 
	C232.544281,249.696030 213.628448,263.631226 194.848724,277.729919 
	C191.991776,279.874756 190.631729,282.330170 189.928833,285.884216 
	C187.038727,300.497131 181.255157,313.806122 170.671371,324.524536 
	C171.360153,327.182220 173.246857,328.722534 174.748505,330.406982 
	C187.975311,345.243744 189.179077,362.614288 185.939621,381.109741 
	C183.818924,393.217621 180.650192,405.134430 180.000824,417.523499 
	C179.582291,425.508911 182.276077,431.811401 187.800888,437.226013 
	C191.489731,440.841278 195.321198,444.329315 198.796280,448.140961 
	C208.079315,458.323151 206.043976,468.568512 193.795837,474.876160 
	C183.376511,480.242035 172.304306,478.733154 161.433014,477.792542 
	C154.162704,477.163483 147.182526,474.487793 140.274597,472.040344 
	C134.355240,469.943176 128.808716,466.886597 125.400452,461.544464 
	C121.230019,455.007660 115.099525,453.179565 108.086716,452.353088 
	C90.086914,450.231781 72.109116,447.924957 53.966877,447.320526 
	C52.164501,447.260468 50.351692,446.777924 48.592140,446.309570 
	C43.797031,445.033264 40.768620,441.853424 39.811321,437.060120 
	C38.843258,432.212860 40.651340,428.236267 44.578354,425.226776 
	C51.158119,420.184296 58.978111,418.342438 66.873993,417.064728 
	C71.433258,416.326965 73.764084,414.472809 74.817017,409.810669 
	C78.243454,394.639191 84.136208,380.292542 90.678055,366.242035 
	C92.619644,362.071899 91.605446,360.192902 87.781693,358.054657 
	C77.476234,352.291748 67.010513,346.672394 60.836071,335.729828 
	C58.087868,330.859314 56.686096,325.581726 54.823261,320.434418 
	C53.859428,317.771149 52.749908,315.546234 49.466679,315.357635 
	C27.383278,314.089111 16.057577,300.238647 9.710395,280.917114 
	C5.051013,266.733429 4.302075,251.857758 2.767686,237.141998 
	C2.199034,231.688278 1.764106,226.220612 1.134098,220.379654 
	C1.000000,204.645767 1.000000,189.291550 1.133816,173.119110 
	C1.522967,171.339096 1.860591,170.390823 2.021422,169.413467 
	C4.912021,151.847198 14.473822,140.465912 32.173534,136.277542 
	C37.587849,134.996323 38.028793,132.438110 33.440708,128.383011 
	C22.381832,118.608856 20.820208,94.274040 30.655376,84.523857 
	C32.628662,82.567619 33.430710,79.990753 33.609940,77.265099 
	C34.536392,63.176224 40.379887,50.859425 48.055447,39.464260 
	C62.222988,18.431091 81.911125,5.483814 107.000000,1.000000 
	C114.020943,1.000000 121.041893,1.000000 128.531418,0.999999 
M118.476418,305.844543 
	C124.184608,306.974091 129.829391,308.204224 135.776184,307.574860 
	C140.242142,307.102203 144.183701,308.345673 147.019684,312.536469 
	C148.919495,315.343872 152.109726,315.981750 155.512390,314.904358 
	C164.331421,312.111908 168.130539,300.431610 163.075287,291.511108 
	C160.899506,287.671753 158.095856,285.103455 153.215500,285.112366 
	C143.006180,285.131012 133.577728,282.036011 124.591255,277.318726 
	C113.521263,271.507782 103.463829,264.524384 96.844818,253.583649 
	C92.439796,246.302475 90.471672,238.192078 88.487068,228.724426 
	C92.067863,231.489685 92.352005,234.426239 93.156746,237.002258 
	C95.413345,244.225845 98.083397,251.325897 103.536446,256.712067 
	C118.296371,271.290985 135.073059,281.598328 156.886536,280.725586 
	C159.768295,280.610321 160.837250,279.378448 160.844284,276.837433 
	C160.854431,273.173553 161.080261,269.461212 160.586487,265.855499 
	C159.624573,258.831299 160.479492,251.563171 157.953064,244.377350 
	C152.387283,245.203140 147.019913,246.232147 141.603668,246.750259 
	C132.809708,247.591476 124.206268,246.868515 116.834526,241.291840 
	C110.754684,236.692505 107.752686,227.952927 110.190735,221.147583 
	C112.787079,213.900406 119.443230,213.170380 125.824791,212.763321 
	C129.617844,212.521362 133.473190,213.021729 137.283859,213.370468 
	C139.932358,213.612839 142.541687,214.263763 145.188110,214.553085 
	C148.307007,214.894073 151.667206,215.361008 151.044586,209.590179 
	C152.690628,214.445694 155.965286,214.109253 159.237869,213.695236 
	C163.388702,213.170120 167.382141,212.015182 171.327667,210.647171 
	C172.721558,210.163879 174.030762,209.417007 173.680328,207.903809 
	C172.024734,200.754807 170.178665,193.649918 168.176437,185.632034 
	C160.554413,192.363464 152.311813,194.255798 143.743744,194.880905 
	C138.270172,195.280243 132.729568,195.437500 127.259544,195.081161 
	C111.112907,194.029358 95.076500,192.571396 80.569946,184.106873 
	C73.293869,179.861313 62.462994,182.691620 57.198311,189.199600 
	C47.670380,200.977646 42.919739,214.254013 43.993568,229.494431 
	C44.424915,235.616394 44.164894,241.772308 47.049610,247.546494 
	C53.887203,261.232971 62.136623,273.749023 74.131615,283.599579 
	C87.038597,294.199005 100.738731,303.057587 118.476418,305.844543 
M95.863564,335.502258 
	C96.495499,331.811646 99.492020,330.127441 102.108383,328.105042 
	C105.832802,325.226166 109.928848,322.753754 113.470741,318.407013 
	C104.994453,316.914734 97.313179,315.616821 90.117920,312.416504 
	C82.882744,309.198395 76.641975,304.390564 69.395416,299.147583 
	C70.612228,319.436127 77.574097,335.689575 93.182938,347.131989 
	C99.165962,351.518005 105.985626,354.821350 111.649437,359.801056 
	C115.092896,362.828583 118.698288,362.143097 122.179108,359.723663 
	C124.140701,358.360229 125.242172,356.251465 126.690125,354.433685 
	C128.974991,351.565216 130.977463,348.273926 135.227264,347.048859 
	C135.369476,350.976654 135.461472,354.430023 134.728760,357.875336 
	C132.117065,370.156097 129.999619,382.598053 133.516739,394.924957 
	C137.220535,407.906128 137.259811,421.195343 138.384811,434.421143 
	C139.380737,446.129761 142.394943,456.758026 154.115753,462.585449 
	C159.117645,465.072357 164.377640,466.430298 169.849213,467.196228 
	C177.339600,468.244751 184.822464,468.171173 192.214050,466.588409 
	C199.617798,465.003021 201.327438,460.457916 197.095444,454.254944 
	C194.905304,451.044800 191.966888,448.612793 189.007339,446.156677 
	C180.568848,439.153870 174.986877,430.901184 175.573349,419.143005 
	C176.090454,408.775757 177.719086,398.646362 180.040955,388.600830 
	C182.339401,378.656525 184.007019,368.502350 183.007080,358.451385 
	C181.562744,343.933411 172.541428,333.286743 162.248489,323.686096 
	C159.885208,321.481781 157.601074,320.336487 154.205902,321.626373 
	C151.411926,322.687805 148.205093,322.835297 145.413300,321.464142 
	C143.143738,320.349548 141.822586,321.134918 140.153259,322.567383 
	C133.080338,328.636780 125.874413,334.550873 118.754395,340.565887 
	C115.719498,343.129791 112.725945,344.971344 109.196274,341.351715 
	C108.435097,340.571136 107.506386,340.673553 106.433510,340.967438 
	C99.788475,342.787323 98.826103,342.321503 95.863564,335.502258 
M5.429094,176.011856 
	C5.247512,180.839813 4.966682,185.666428 4.901171,190.495956 
	C4.582148,214.014481 7.198503,237.360931 9.574495,260.689178 
	C10.804695,272.767700 13.618772,284.606689 20.667530,295.053864 
	C23.316153,298.979462 25.820595,300.311737 30.016661,297.856384 
	C32.802353,296.226318 35.277813,295.760529 38.777187,297.340271 
	C46.629704,300.885223 51.646782,297.479156 51.274231,289.062927 
	C51.066227,284.364075 47.517414,280.885742 43.385475,279.170929 
	C39.857216,277.706696 37.753746,275.643585 37.166584,272.133606 
	C36.482029,268.041412 35.755039,263.880157 35.797138,259.756531 
	C35.939808,245.781815 35.358833,231.821686 36.553879,217.823624 
	C37.962776,201.320557 42.900345,186.570892 54.274139,174.334381 
	C56.752327,171.668228 56.998417,169.527786 54.865444,166.490952 
	C49.899773,159.421051 44.458229,152.648453 41.096958,144.527023 
	C39.651894,141.035507 36.565819,139.717117 32.823257,140.678101 
	C26.619513,142.270996 20.904795,144.774689 16.183565,149.333923 
	C8.857785,156.408310 6.871257,165.604736 5.429094,176.011856 
M164.286362,171.928406 
	C152.991531,175.603546 141.308899,176.105103 129.663406,175.207870 
	C110.353455,173.720093 92.585953,167.529968 79.112030,153.141129 
	C70.076904,143.492508 62.440018,132.506989 65.903709,117.739571 
	C67.677040,110.178947 67.367241,102.514725 65.969589,94.936180 
	C64.429970,86.587807 62.287640,78.390617 66.321808,70.026482 
	C72.408562,57.406689 80.011765,46.098709 91.221245,37.365002 
	C111.086952,21.886915 133.302658,15.637852 158.228867,19.876732 
	C166.798111,21.333996 174.544052,24.994457 181.598938,29.430120 
	C146.605545,2.676226 111.846611,10.735969 76.997208,30.758318 
	C86.039680,21.108606 97.558281,16.192764 109.933708,12.765052 
	C122.447716,9.298956 135.153610,8.007480 148.130234,9.115397 
	C135.866333,4.535228 123.080200,3.156266 110.327644,4.508008 
	C88.836182,6.786052 70.949020,15.975277 58.411324,34.376606 
	C50.141338,46.514294 45.910557,59.998123 43.674397,74.297104 
	C42.915413,79.150398 43.766964,80.188095 48.733746,80.096054 
	C55.993130,79.961525 58.545509,81.694092 60.639576,88.565132 
	C63.770535,98.838402 62.764011,108.995659 59.184166,118.928902 
	C57.632195,123.235260 55.155582,127.245850 50.587910,128.807083 
	C46.865894,130.079269 47.208679,132.027405 48.252377,134.913818 
	C53.017338,148.091583 62.326748,158.118256 70.976158,168.700958 
	C77.064293,176.149902 84.652199,181.186539 93.574028,183.526733 
	C107.338905,187.137283 121.192223,190.850632 135.637741,190.755447 
	C141.175400,190.718979 146.764755,191.051590 152.117859,188.507187 
	C125.278893,190.644623 102.058464,181.774353 80.351807,166.427002 
	C82.148399,165.033585 82.977501,165.865906 83.778282,166.331772 
	C104.174789,178.197739 126.292122,182.248734 149.602585,180.791275 
	C157.633347,180.289185 165.528625,179.162827 172.348663,174.333664 
	C174.707428,172.663467 176.838959,170.811371 178.230911,167.446075 
	C173.271896,169.037216 169.163437,170.355469 164.286362,171.928406 
M120.156532,384.186401 
	C120.254654,383.528259 120.463058,382.864777 120.431351,382.212952 
	C120.309181,379.701294 120.275223,376.717285 117.546837,375.857941 
	C115.088181,375.083527 114.148949,377.937927 112.712341,379.442505 
	C111.306107,380.915222 110.485428,383.246735 107.568901,383.058105 
	C107.477112,382.383820 107.209900,381.722198 107.340027,381.151123 
	C107.899330,378.696411 110.003601,375.727173 106.029335,374.504120 
	C102.443245,373.400513 99.192802,370.944580 95.221024,375.782898 
	C89.269859,383.032440 87.305229,391.814789 83.620079,399.890656 
	C80.673363,406.348236 78.992653,413.416016 77.825432,420.478333 
	C76.909279,426.021545 80.083290,431.117493 85.514488,433.764282 
	C89.750450,435.828583 93.155014,435.144714 95.677155,430.059204 
	C99.352852,434.793884 103.411018,437.694855 109.236084,437.676849 
	C114.564728,437.660400 119.709305,436.663849 125.218536,436.387512 
	C124.609299,427.143250 125.056053,418.396423 122.725761,409.708771 
	C120.579193,401.705994 120.117767,393.344025 120.156532,384.186401 
M270.607330,197.142456 
	C266.087860,201.066315 260.890442,203.860672 254.938110,204.220001 
	C247.802795,204.650742 240.624405,204.286407 233.574310,202.739319 
	C214.196884,198.487076 196.470688,190.064407 178.935349,181.151093 
	C176.903381,180.118225 174.749771,178.275955 172.493713,180.010437 
	C170.328323,181.675217 171.065964,184.381042 171.638992,186.545288 
	C173.597473,193.942047 176.000824,201.223770 177.859680,208.643265 
	C179.090637,213.556488 182.229492,215.540787 186.823486,216.723175 
	C200.150482,220.153214 213.891205,220.016205 227.380615,221.908249 
	C235.406189,223.033936 241.555359,220.274521 248.227325,216.285812 
	C260.061554,209.210968 271.835297,202.094925 283.067932,194.100311 
	C284.742889,192.908188 286.768951,192.013397 287.811615,189.764343 
	C280.084351,187.444214 275.113617,190.871094 270.607330,197.142456 
M157.357590,217.193985 
	C152.072418,217.797394 146.838043,218.038971 141.471512,217.490784 
	C135.543869,216.885269 129.642395,215.620499 123.604340,216.087021 
	C119.066650,216.437637 115.600998,218.341385 113.684486,222.507294 
	C111.773232,226.661758 112.585167,230.507111 115.219917,234.216644 
	C119.193260,239.810837 124.570946,242.315262 131.320969,242.735855 
	C147.432846,243.739746 162.354645,239.144547 176.525208,232.384979 
	C183.552460,229.032883 176.640808,223.405151 176.632614,218.824005 
	C176.627151,215.765656 174.602661,213.542587 170.896194,214.329498 
	C170.570877,214.398560 170.245651,214.468109 169.920547,214.538147 
	C166.021881,215.377960 162.123276,216.217926 157.357590,217.193985 
M185.038452,228.293945 
	C184.827744,229.073792 184.288910,229.933105 184.455627,230.621552 
	C186.905731,240.738754 189.273392,250.872604 190.950470,262.539703 
	C205.828949,251.332626 219.851044,240.770599 233.873138,230.208572 
	C221.619385,228.514023 209.848114,227.843384 198.068741,227.377625 
	C193.941940,227.214462 189.759659,226.565903 185.038452,228.293945 
M30.274464,100.992531 
	C30.061783,105.800255 29.589422,110.608734 30.983356,115.350655 
	C34.641476,127.794952 39.705173,129.501877 49.795456,121.638901 
	C50.057281,121.434875 50.338970,121.235298 50.540283,120.978004 
	C52.081203,119.008537 53.336273,120.460403 54.585438,121.880676 
	C59.583519,111.360245 59.391121,100.731949 58.367760,90.131897 
	C58.039066,86.727272 55.998684,83.588715 52.159927,82.253380 
	C58.673771,92.728455 59.711712,104.721588 54.616528,110.848358 
	C53.498402,109.642952 54.171162,108.375443 54.361111,107.117134 
	C55.199169,101.565483 54.500160,96.130188 52.460461,90.967239 
	C50.542747,86.113060 46.657566,83.911919 41.438171,84.031693 
	C36.486221,84.145332 33.948708,86.985558 32.785515,91.495918 
	C32.041359,94.381432 31.202053,97.242409 30.274464,100.992531 
M179.527710,236.561035 
	C175.151398,238.140976 170.820328,239.865555 166.383881,241.253250 
	C163.068665,242.290222 161.924744,244.129517 162.535202,247.570602 
	C163.754837,254.445511 164.293900,261.395447 164.427628,268.388916 
	C164.511505,272.775574 165.001236,277.154449 165.367340,282.369720 
	C169.911423,278.819092 173.356155,275.269928 177.514282,273.067932 
	C184.782181,269.219177 188.038681,264.172211 185.707092,255.892471 
	C183.897049,249.464813 184.301819,242.414520 179.527710,236.561035 
M186.944199,67.666191 
	C196.557388,82.630592 198.222885,99.699005 199.565369,116.876030 
	C203.517715,108.020638 203.176483,98.829201 202.881409,89.701050 
	C202.215485,69.099472 192.128983,53.784443 175.577011,42.324081 
	C170.470703,38.788532 166.153412,38.510513 164.939972,41.525658 
	C163.015228,46.308144 167.065903,48.427032 170.104141,50.528599 
	C176.628387,55.041462 182.217224,60.401031 186.944199,67.666191 
M288.700806,222.308273 
	C289.965332,221.231430 291.323883,220.246185 292.478119,219.061859 
	C297.475189,213.934692 298.200500,207.566071 294.332184,203.461578 
	C289.945557,198.807144 282.215332,198.353546 277.074127,202.515823 
	C274.200012,204.842697 272.059479,207.766281 270.098450,210.911346 
	C267.580719,214.949188 268.529419,218.597305 270.894928,222.072861 
	C273.229950,225.503693 276.880554,226.062332 280.683014,225.583176 
	C283.349792,225.247131 285.766388,224.056839 288.700806,222.308273 
M171.801956,31.702917 
	C164.286942,27.694147 156.293793,26.026146 147.763474,26.170782 
	C129.115036,26.486977 112.789932,33.529335 97.361931,43.198544 
	C92.200966,46.433083 87.643608,50.449009 84.089424,55.483406 
	C98.752869,41.900570 116.585732,34.545746 135.781738,31.352392 
	C162.898270,26.841427 189.685760,37.762775 201.052216,66.881882 
	C205.188217,77.477715 207.658813,88.401764 209.008484,99.491531 
	C206.520920,71.835724 199.638626,46.511902 171.801956,31.702917 
M164.419464,317.999512 
	C165.887177,321.277344 167.570496,320.098450 169.244675,318.210083 
	C174.126663,312.703491 178.339050,306.741119 181.474792,300.057983 
	C183.495453,295.751404 185.361130,291.399445 185.404724,285.558594 
	C180.271469,289.467102 175.796692,292.860046 171.341064,296.277985 
	C170.388641,297.008606 169.606415,297.938904 169.783447,299.230591 
	C170.724121,306.094055 168.260513,311.927582 164.419464,317.999512 
M147.551849,41.024010 
	C149.475616,40.197308 148.654556,39.301857 147.486313,38.699036 
	C144.629776,37.225044 141.551956,36.802834 138.370407,37.206120 
	C136.849304,37.398930 135.135208,37.791058 135.167969,39.612419 
	C135.202850,41.552738 136.938751,42.505775 138.629272,42.413197 
	C141.405121,42.261181 144.155441,41.643532 147.551849,41.024010 
M118.902573,47.358192 
	C120.317894,46.483696 121.870850,45.572609 121.199371,43.575745 
	C120.758453,42.264519 119.428215,42.251110 118.264610,42.503239 
	C116.895454,42.799904 115.785934,43.645470 115.568985,45.036503 
	C115.266266,46.977543 116.490280,47.634045 118.902573,47.358192 
z"/>
<path fill="#000000" opacity="1.000000" stroke="none" 
	d="
M771.468628,577.000000 
	C763.142212,574.535950 754.845337,574.204468 746.845642,573.781616 
	C733.411682,573.071533 720.673889,569.522461 707.671631,566.968201 
	C691.760254,563.842468 676.438477,558.949341 661.574890,552.475342 
	C653.259216,548.853333 645.294556,544.839172 639.037598,538.039856 
	C634.444519,533.048523 632.050110,527.187134 631.685974,520.454529 
	C631.632019,519.456543 631.770081,518.423706 631.562988,517.462158 
	C628.061401,501.201813 634.871094,489.936920 648.828308,482.380829 
	C671.613342,470.045593 695.729614,462.094055 721.688599,459.562378 
	C739.393677,457.835663 757.012939,455.139496 774.622131,452.547607 
	C789.387329,450.374298 804.200989,450.918823 819.020508,450.912964 
	C822.965515,450.911407 826.981812,451.344269 831.090210,449.865234 
	C830.760010,436.247406 828.965698,422.941956 826.319458,409.735687 
	C822.008118,388.220215 817.297302,366.777008 813.426514,345.182953 
	C808.272034,316.427704 806.855042,287.456146 808.427063,258.202637 
	C810.088684,227.283188 815.921753,197.183594 823.047974,167.199738 
	C826.819885,151.329453 829.740234,135.309570 828.775940,118.809273 
	C828.575745,115.383217 826.769287,112.183571 827.532288,107.887527 
	C831.204834,112.260925 830.670044,117.108536 831.250671,121.461586 
	C833.313660,136.928055 830.177246,151.987106 826.600891,166.878799 
	C819.598999,196.033478 813.864441,225.327103 812.017456,255.365875 
	C810.229858,284.438751 811.563904,313.209412 816.726624,341.878357 
	C821.531738,368.561859 828.520630,394.804321 832.643921,421.612396 
	C833.855408,429.489502 834.744385,437.448395 835.161377,445.402283 
	C835.378723,449.549194 836.850891,450.471039 840.761780,450.928223 
	C864.105835,453.656891 887.704102,452.734009 910.988525,455.746613 
	C927.981079,457.945160 944.553833,462.580627 961.342712,465.973663 
	C977.276123,469.193787 992.580017,474.034851 1007.283264,480.911133 
	C1015.883179,484.933044 1021.975830,491.117859 1024.849121,500.680817 
	C1025.000000,508.687592 1025.000000,516.375183 1024.844360,524.845825 
	C1021.889404,534.878174 1016.028015,540.937256 1007.470398,545.821594 
	C997.089172,551.746765 986.010071,555.529785 975.106201,559.997803 
	C958.802734,566.678223 941.926147,570.665283 924.429626,572.353821 
	C913.881348,573.371826 903.185974,573.493774 893.000000,577.000000 
	C852.645752,577.000000 812.291565,577.000000 771.468628,577.000000 
M767.139282,457.802704 
	C753.798523,459.619415 740.505676,462.338623 727.106201,463.050568 
	C704.544189,464.249359 683.843872,471.562225 663.323181,479.956085 
	C657.146240,482.482788 651.246948,485.589783 645.786926,489.432953 
	C637.294434,495.410553 633.423767,505.197205 636.333618,512.980042 
	C638.523499,513.388672 639.551147,511.602264 640.882996,510.471680 
	C646.095032,506.047272 651.518494,501.963165 657.555725,498.675537 
	C671.120544,491.288696 685.834167,486.939056 700.555054,482.854431 
	C717.874512,478.048798 735.902893,476.801544 753.581787,473.763580 
	C776.765381,469.779663 800.374573,471.576874 823.746460,469.790588 
	C831.770508,469.177338 831.809021,469.680603 831.679016,461.813507 
	C831.670715,461.314178 831.627014,460.812805 831.656921,460.315857 
	C831.888611,456.463684 830.106018,455.088348 826.259460,455.114685 
	C806.808655,455.248108 787.310486,454.090485 767.139282,457.802704 
M873.017212,457.605988 
	C863.906067,456.843536 854.802795,455.963074 845.681580,455.350250 
	C835.571289,454.670929 835.676453,454.846863 835.156860,465.114441 
	C834.971924,468.768829 836.169006,469.786591 839.579773,469.732819 
	C850.067932,469.567352 860.569519,469.647400 871.010681,470.704224 
	C883.913269,472.010162 897.019958,471.192963 909.757263,473.978943 
	C929.884583,478.381256 950.276611,481.391663 970.231262,486.806458 
	C986.997314,491.356018 1002.858276,497.135162 1016.407104,508.285889 
	C1017.642883,509.302887 1018.787415,510.602142 1020.586304,510.748840 
	C1022.061768,509.306244 1021.437134,507.671082 1021.212708,506.043274 
	C1019.810547,495.873260 1013.735229,489.093140 1004.976135,484.718262 
	C991.225891,477.850372 976.799744,472.734406 961.620667,470.057495 
	C941.335083,466.480072 921.524109,460.290436 900.874939,458.778198 
	C891.921021,458.122467 882.922729,458.072784 873.017212,457.605988 
z"/>
<path fill="#000000" opacity="1.000000" stroke="none" 
	d="
M46.561295,106.334801 
	C46.168629,109.642601 45.032661,112.238876 43.107388,114.383347 
	C40.713577,117.049683 38.663719,116.744370 37.081833,113.396576 
	C44.299160,110.079155 46.061214,102.448845 41.116581,96.845802 
	C38.839291,96.808830 38.825394,100.062347 36.047993,100.180328 
	C36.395542,96.823814 37.019569,94.016319 40.810150,93.640404 
	C44.222397,93.302010 45.466518,95.924118 46.103867,98.566643 
	C46.677391,100.944557 47.512131,103.409462 46.561295,106.334801 
z"/>
</svg>