<?xml version="1.0" encoding="UTF-8"?>
<!DOCTYPE svg PUBLIC "-//W3C//DTD SVG 1.1//EN" "http://www.w3.org/Graphics/SVG/1.1/DTD/svg11.dtd">
<svg xmlns="http://www.w3.org/2000/svg" version="1.1" width="512px" height="512px" style="shape-rendering:geometricPrecision; text-rendering:geometricPrecision; image-rendering:optimizeQuality; fill-rule:evenodd; clip-rule:evenodd" xmlns:xlink="http://www.w3.org/1999/xlink">
<g><path style="opacity:0.999" fill="#edeaea" d="M 278.5,-0.5 C 287.167,-0.5 295.833,-0.5 304.5,-0.5C 332.112,5.44481 352.112,21.1115 364.5,46.5C 374.439,71.0533 373.439,95.2199 361.5,119C 381.917,128.261 393.25,144.095 395.5,166.5C 411.916,156.54 427.583,157.707 442.5,170C 455.41,185.023 456.91,201.19 447,218.5C 441.185,225.988 433.685,230.822 424.5,233C 388.835,233.5 353.168,233.667 317.5,233.5C 302.261,208.693 286.761,184.026 271,159.5C 266.883,155.692 262.05,153.358 256.5,152.5C 224.612,135.07 209.612,108.07 211.5,71.5C 212.28,59.6586 215.78,48.6586 222,38.5C 226.185,32.7743 230.352,27.1076 234.5,21.5C 247.054,9.88946 261.721,2.55613 278.5,-0.5 Z"/></g>
<g><path style="opacity:0.986" fill="#404040" d="M 234.5,21.5 C 230.352,27.1076 226.185,32.7743 222,38.5C 215.78,48.6586 212.28,59.6586 211.5,71.5C 176.341,64.4953 147.508,74.8286 125,102.5C 112.515,120.472 107.015,140.472 108.5,162.5C 83.5007,155.416 66.6674,164.082 58,188.5C 56.8475,196.763 57.6808,204.763 60.5,212.5C 53.5476,215.404 48.7143,220.404 46,227.5C 45.5,282.832 45.3333,338.166 45.5,393.5C 10.5579,334.074 1.39124,270.741 18,203.5C 45.4423,112.391 104.942,53.8911 196.5,28C 209.086,25.0692 221.753,22.9025 234.5,21.5 Z"/></g>
<g><path style="opacity:0.993" fill="#404040" d="M 364.5,46.5 C 436.161,83.7415 480.328,142.075 497,221.5C 507.499,282.854 496.999,340.187 465.5,393.5C 465.667,378.163 465.5,362.83 465,347.5C 462.498,339.322 456.998,334.488 448.5,333C 434.171,332.5 419.837,332.333 405.5,332.5C 405.5,322.5 405.5,312.5 405.5,302.5C 408.586,287.824 403.253,277.991 389.5,273C 363.169,272.5 336.835,272.333 310.5,272.5C 321.769,267.645 326.602,258.978 325,246.5C 322.993,241.812 320.493,237.479 317.5,233.5C 353.168,233.667 388.835,233.5 424.5,233C 433.685,230.822 441.185,225.988 447,218.5C 456.91,201.19 455.41,185.023 442.5,170C 427.583,157.707 411.916,156.54 395.5,166.5C 393.25,144.095 381.917,128.261 361.5,119C 373.439,95.2199 374.439,71.0533 364.5,46.5 Z"/></g>
<g><path style="opacity:1" fill="#c7c7c7" d="M 211.5,71.5 C 209.612,108.07 224.612,135.07 256.5,152.5C 249.632,152.85 243.799,155.516 239,160.5C 227.392,179.4 215.559,198.067 203.5,216.5C 200.676,215.055 197.676,213.889 194.5,213C 149.835,212.5 105.168,212.333 60.5,212.5C 57.6808,204.763 56.8475,196.763 58,188.5C 66.6674,164.082 83.5007,155.416 108.5,162.5C 107.015,140.472 112.515,120.472 125,102.5C 147.508,74.8286 176.341,64.4953 211.5,71.5 Z"/></g>
<g><path style="opacity:1" fill="#63cece" d="M 256.5,152.5 C 262.05,153.358 266.883,155.692 271,159.5C 286.761,184.026 302.261,208.693 317.5,233.5C 320.493,237.479 322.993,241.812 325,246.5C 326.602,258.978 321.769,267.645 310.5,272.5C 305.5,272.5 300.5,272.5 295.5,272.5C 295.5,282.5 295.5,292.5 295.5,302.5C 295.5,312.5 295.5,322.5 295.5,332.5C 282.167,332.5 268.833,332.5 255.5,332.5C 255.666,323.161 255.5,313.827 255,304.5C 249.245,284.703 236.078,274.037 215.5,272.5C 200.308,275.665 190.474,269.999 186,255.5C 185.333,252.5 185.333,249.5 186,246.5C 192.088,236.595 197.921,226.595 203.5,216.5C 215.559,198.067 227.392,179.4 239,160.5C 243.799,155.516 249.632,152.85 256.5,152.5 Z"/></g>
<g><path style="opacity:0.999" fill="#a067f2" d="M 60.5,212.5 C 105.168,212.333 149.835,212.5 194.5,213C 197.676,213.889 200.676,215.055 203.5,216.5C 197.921,226.595 192.088,236.595 186,246.5C 185.333,249.5 185.333,252.5 186,255.5C 190.474,269.999 200.308,275.665 215.5,272.5C 215.5,282.5 215.5,292.5 215.5,302.5C 182.832,302.333 150.165,302.5 117.5,303C 94.5215,308.311 80.6882,322.478 76,345.5C 75.8323,374.67 75.3323,403.67 74.5,432.5C 63.6149,420.392 53.9482,407.392 45.5,393.5C 45.3333,338.166 45.5,282.832 46,227.5C 48.7143,220.404 53.5476,215.404 60.5,212.5 Z"/></g>
<g><path style="opacity:1" fill="#42a6a6" d="M 215.5,272.5 C 236.078,274.037 249.245,284.703 255,304.5C 255.5,313.827 255.666,323.161 255.5,332.5C 242.167,332.5 228.833,332.5 215.5,332.5C 215.5,322.5 215.5,312.5 215.5,302.5C 215.5,292.5 215.5,282.5 215.5,272.5 Z"/></g>
<g><path style="opacity:1" fill="#9f66f1" d="M 310.5,272.5 C 336.835,272.333 363.169,272.5 389.5,273C 403.253,277.991 408.586,287.824 405.5,302.5C 368.833,302.5 332.167,302.5 295.5,302.5C 295.5,292.5 295.5,282.5 295.5,272.5C 300.5,272.5 305.5,272.5 310.5,272.5 Z"/></g>
<g><path style="opacity:0.999" fill="#7e3ce0" d="M 215.5,302.5 C 215.5,312.5 215.5,322.5 215.5,332.5C 228.833,332.5 242.167,332.5 255.5,332.5C 268.833,332.5 282.167,332.5 295.5,332.5C 295.5,322.5 295.5,312.5 295.5,302.5C 332.167,302.5 368.833,302.5 405.5,302.5C 405.5,312.5 405.5,322.5 405.5,332.5C 419.837,332.333 434.171,332.5 448.5,333C 456.998,334.488 462.498,339.322 465,347.5C 465.5,362.83 465.667,378.163 465.5,393.5C 426.699,455.241 371.366,493.574 299.5,508.5C 242.066,491.23 205.233,453.563 189,395.5C 186.011,379.624 185.011,363.624 186,347.5C 188.474,340.359 193.307,335.526 200.5,333C 173.833,332.333 147.167,332.333 120.5,333C 113.307,335.526 108.474,340.359 106,347.5C 105.5,385.165 105.333,422.832 105.5,460.5C 94.1811,452.327 83.8478,442.993 74.5,432.5C 75.3323,403.67 75.8323,374.67 76,345.5C 80.6882,322.478 94.5215,308.311 117.5,303C 150.165,302.5 182.832,302.333 215.5,302.5 Z"/></g>
<g><path style="opacity:1" fill="#9f66f2" d="M 299.5,508.5 C 291.982,509.146 284.648,510.146 277.5,511.5C 262.833,511.5 248.167,511.5 233.5,511.5C 185.874,506.678 143.207,489.678 105.5,460.5C 105.333,422.832 105.5,385.165 106,347.5C 108.474,340.359 113.307,335.526 120.5,333C 147.167,332.333 173.833,332.333 200.5,333C 193.307,335.526 188.474,340.359 186,347.5C 185.011,363.624 186.011,379.624 189,395.5C 205.233,453.563 242.066,491.23 299.5,508.5 Z"/></g>
</svg>
